<svg xmlns="http://www.w3.org/2000/svg" width="13.544" height="9" viewBox="0 0 13.544 9">
  <path id="Caminho_9530" data-name="Caminho 9530" d="M6.144-6.668a2.8,2.8,0,0,1-.151.967H4.1a2.677,2.677,0,0,1,.151.967,2.8,2.8,0,0,1-.151.967H2.211a2.677,2.677,0,0,1,.151.967,2.8,2.8,0,0,1-.151.967H.32a2.677,2.677,0,0,1,.151.967A2.8,2.8,0,0,1,.32.1H-2.7a2.8,2.8,0,0,1-.151-.967A2.677,2.677,0,0,1-2.7-1.83H-.814A2.8,2.8,0,0,1-.965-2.8a2.677,2.677,0,0,1,.151-.967H1.077a2.8,2.8,0,0,1-.151-.967A2.677,2.677,0,0,1,1.077-5.7H2.968a2.8,2.8,0,0,1-.151-.967,2.677,2.677,0,0,1,.151-.967H1.077A2.8,2.8,0,0,1,.926-8.6a2.677,2.677,0,0,1,.151-.967H-.814a2.8,2.8,0,0,1-.151-.967,2.677,2.677,0,0,1,.151-.967H-2.7a2.8,2.8,0,0,1-.151-.967A2.677,2.677,0,0,1-2.7-13.44H.32a2.677,2.677,0,0,1,.151.967,2.8,2.8,0,0,1-.151.967H2.211a2.677,2.677,0,0,1,.151.967,2.8,2.8,0,0,1-.151.967H4.1a2.677,2.677,0,0,1,.151.967,2.8,2.8,0,0,1-.151.967H5.993A2.677,2.677,0,0,1,6.144-6.668Z" transform="translate(0.104 2.856) rotate(90)" fill="#fff"/>
</svg>
