<svg id="arrow-left" xmlns="http://www.w3.org/2000/svg" width="18" height="27.089" viewBox="0 0 18 27.089">
  <path id="Caminho_9431" data-name="Caminho 9431" d="M15.144.1a5.6,5.6,0,0,1-.3,1.935H11.06a5.353,5.353,0,0,1,.3,1.935,5.6,5.6,0,0,1-.3,1.935H7.278a5.353,5.353,0,0,1,.3,1.935,5.6,5.6,0,0,1-.3,1.935H3.5a5.353,5.353,0,0,1,.3,1.935,5.6,5.6,0,0,1-.3,1.935h-6.05a5.6,5.6,0,0,1-.3-1.935,5.353,5.353,0,0,1,.3-1.935H1.228a5.6,5.6,0,0,1-.3-1.935,5.353,5.353,0,0,1,.3-1.935H5.01a5.6,5.6,0,0,1-.3-1.935,5.353,5.353,0,0,1,.3-1.935H8.791A5.6,5.6,0,0,1,8.489.1a5.353,5.353,0,0,1,.3-1.935H5.01a5.6,5.6,0,0,1-.3-1.935A5.353,5.353,0,0,1,5.01-5.7H1.228a5.6,5.6,0,0,1-.3-1.935,5.353,5.353,0,0,1,.3-1.935H-2.553a5.6,5.6,0,0,1-.3-1.935,5.353,5.353,0,0,1,.3-1.935H3.5a5.353,5.353,0,0,1,.3,1.935A5.6,5.6,0,0,1,3.5-9.57H7.278a5.353,5.353,0,0,1,.3,1.935,5.6,5.6,0,0,1-.3,1.935H11.06a5.353,5.353,0,0,1,.3,1.935,5.6,5.6,0,0,1-.3,1.935h3.782A5.353,5.353,0,0,1,15.144.1Z" transform="translate(15.144 13.649) rotate(180)"/>
</svg>
