<svg id="arrow-right" xmlns="http://www.w3.org/2000/svg" width="18" height="27.09" viewBox="0 0 18 27.09">
  <path id="Caminho_9431" data-name="Caminho 9431" d="M18,13.545a5.6,5.6,0,0,0-.3-1.935H13.916a5.353,5.353,0,0,0,.3-1.935,5.6,5.6,0,0,0-.3-1.935H10.134a5.353,5.353,0,0,0,.3-1.935,5.6,5.6,0,0,0-.3-1.935H6.353a5.353,5.353,0,0,0,.3-1.935A5.6,5.6,0,0,0,6.353,0H.3A5.6,5.6,0,0,0,0,1.935,5.353,5.353,0,0,0,.3,3.87H4.084a5.6,5.6,0,0,0-.3,1.935,5.353,5.353,0,0,0,.3,1.935H7.866a5.6,5.6,0,0,0-.3,1.935,5.353,5.353,0,0,0,.3,1.935h3.782a5.6,5.6,0,0,0-.3,1.935,5.353,5.353,0,0,0,.3,1.935H7.866a5.6,5.6,0,0,0-.3,1.935,5.353,5.353,0,0,0,.3,1.935H4.084a5.6,5.6,0,0,0-.3,1.935,5.353,5.353,0,0,0,.3,1.935H.3A5.6,5.6,0,0,0,0,25.155,5.353,5.353,0,0,0,.3,27.09h6.05a5.353,5.353,0,0,0,.3-1.935,5.6,5.6,0,0,0-.3-1.935h3.782a5.353,5.353,0,0,0,.3-1.935,5.6,5.6,0,0,0-.3-1.935h3.782a5.353,5.353,0,0,0,.3-1.935,5.6,5.6,0,0,0-.3-1.935H17.7A5.353,5.353,0,0,0,18,13.545Z" fill="#fff"/>
</svg>
