<svg id="asterísco-p" xmlns="http://www.w3.org/2000/svg" width="10.08" height="14" viewBox="0 0 10.08 14">
  <path id="Caminho_9414" data-name="Caminho 9414" d="M12.236-38.08a5.89,5.89,0,0,1,.14,1.4,6.169,6.169,0,0,1-.14,1.4h-1.05a5.89,5.89,0,0,1,.14,1.4,6.169,6.169,0,0,1-.14,1.4,5.89,5.89,0,0,1,.14,1.4,6.169,6.169,0,0,1-.14,1.4h-2.1a6.169,6.169,0,0,1-.14-1.4,5.89,5.89,0,0,1,.14-1.4,6.169,6.169,0,0,1-.14-1.4,5.89,5.89,0,0,1,.14-1.4H8.036a6.169,6.169,0,0,1-.14-1.4,5.89,5.89,0,0,1,.14-1.4h1.05a6.169,6.169,0,0,1-.14-1.4,5.89,5.89,0,0,1,.14-1.4,6.169,6.169,0,0,1-.14-1.4,5.89,5.89,0,0,1,.14-1.4h2.1a5.89,5.89,0,0,1,.14,1.4,6.169,6.169,0,0,1-.14,1.4,5.89,5.89,0,0,1,.14,1.4,6.169,6.169,0,0,1-.14,1.4Zm-4.2-2.8a5.89,5.89,0,0,1,.14,1.4,6.169,6.169,0,0,1-.14,1.4h-2.8a6.169,6.169,0,0,1-.14-1.4,5.89,5.89,0,0,1,.14-1.4Zm7.14,1.4a6.169,6.169,0,0,1-.14,1.4h-2.8a6.169,6.169,0,0,1-.14-1.4,5.89,5.89,0,0,1,.14-1.4h2.8A5.89,5.89,0,0,1,15.176-39.48ZM5.1-33.88a5.89,5.89,0,0,1,.14-1.4h2.8a5.89,5.89,0,0,1,.14,1.4,6.169,6.169,0,0,1-.14,1.4h-2.8A6.169,6.169,0,0,1,5.1-33.88Zm9.94-1.4a5.89,5.89,0,0,1,.14,1.4,6.169,6.169,0,0,1-.14,1.4h-2.8a6.169,6.169,0,0,1-.14-1.4,5.89,5.89,0,0,1,.14-1.4Z" transform="translate(-5.096 43.68)" fill="#ff2bfd"/>
</svg>
