<svg xmlns="http://www.w3.org/2000/svg" width="14.324" height="13.16" viewBox="0 0 14.324 13.16">
  <g id="_D_dot-negative" data-name="[D] dot-negative" transform="translate(0.002)">
    <path id="Caminho_9433" data-name="Caminho 9433" d="M5543.466,1548.131H5537.8l.116-.37a4.477,4.477,0,0,0,.18-1.344,4.752,4.752,0,0,0-.118-1.132h-1.624l.119-.372a4.445,4.445,0,0,0,.18-1.343,4.3,4.3,0,0,0-.178-1.338l-.127-.376h1.627a4.754,4.754,0,0,0,.121-1.132,4.191,4.191,0,0,0-.179-1.338l-.126-.376h5.682l-.127.376a4.287,4.287,0,0,0-.178,1.338,4.914,4.914,0,0,0,.12,1.132h1.63l-.129.376a4.305,4.305,0,0,0-.177,1.338,4.452,4.452,0,0,0,.18,1.343l.118.372h-1.623a4.723,4.723,0,0,0-.118,1.132,4.513,4.513,0,0,0,.179,1.344l.118.369Z" transform="translate(-5533.473 -1536.99)" fill="#fff"/>
    <path id="Caminho_9432" data-name="Caminho 9432" d="M5541.265,1547.86h-6.809a4.741,4.741,0,0,1-.115-1.093,4.185,4.185,0,0,1,.169-1.29l.122-.361h-2.452a4.722,4.722,0,0,1-.115-1.093,4.167,4.167,0,0,1,.169-1.29l.12-.362h-1.54a5.337,5.337,0,0,1,0-2.183h1.537l-.112-.358a4.387,4.387,0,0,1-.171-1.294,4.671,4.671,0,0,1,.113-1.092h2.447l-.112-.358a4.339,4.339,0,0,1-.171-1.294,4.606,4.606,0,0,1,.113-1.091h6.813a4.631,4.631,0,0,1,.113,1.091,4.372,4.372,0,0,1-.17,1.294l-.112.358h2.446a4.6,4.6,0,0,1,.113,1.092,4.37,4.37,0,0,1-.171,1.294l-.111.358h1.537a4.673,4.673,0,0,1,.111,1.091,4.74,4.74,0,0,1-.114,1.091h-1.541l.12.362a4.167,4.167,0,0,1,.169,1.29,4.708,4.708,0,0,1-.115,1.093h-2.449l.119.361a4.139,4.139,0,0,1,.169,1.29,4.7,4.7,0,0,1-.115,1.092Zm-5.916-4.928a4.647,4.647,0,0,1,.112,1.092,4.4,4.4,0,0,1-.17,1.3l-.111.357h5.361l-.111-.357a4.414,4.414,0,0,1-.169-1.3,4.661,4.661,0,0,1,.111-1.092h1.536l-.111-.358a4.332,4.332,0,0,1-.171-1.294,4.2,4.2,0,0,1,.168-1.29l.121-.362h-1.541a4.725,4.725,0,0,1-.114-1.091,4.2,4.2,0,0,1,.168-1.29l.121-.362h-5.376l.12.362a4.155,4.155,0,0,1,.168,1.29,4.673,4.673,0,0,1-.115,1.091h-1.539l.12.362a4.2,4.2,0,0,1,.168,1.29,4.381,4.381,0,0,1-.169,1.294l-.113.358Z" transform="translate(-5530.7 -1534.701)" fill="#fff"/>
  </g>
</svg>
