<svg id="_D_dot-positive" data-name="[D] dot-positive" xmlns="http://www.w3.org/2000/svg" width="14.32" height="13.186" viewBox="0 0 14.32 13.186">
  <path id="Caminho_9433" data-name="Caminho 9433" d="M5544.408,1548.955h-6.416l.132-.4a4.719,4.719,0,0,0,.2-1.465,5,5,0,0,0-.133-1.234h-1.839l.135-.405a4.671,4.671,0,0,0,.2-1.464,4.513,4.513,0,0,0-.2-1.459l-.145-.41h1.843a4.991,4.991,0,0,0,.137-1.235,4.43,4.43,0,0,0-.2-1.459l-.143-.41h6.434l-.144.41a4.5,4.5,0,0,0-.2,1.459,5.157,5.157,0,0,0,.136,1.235h1.845l-.146.41a4.543,4.543,0,0,0-.2,1.459,4.69,4.69,0,0,0,.2,1.464l.133.405h-1.837a4.95,4.95,0,0,0-.134,1.234,4.721,4.721,0,0,0,.2,1.465l.133.4Z" transform="translate(-5534.041 -1537.389)" fill="#000"/>
  <path id="Caminho_9432" data-name="Caminho 9432" d="M5541.263,1547.886h-6.807a4.734,4.734,0,0,1-.115-1.095,4.2,4.2,0,0,1,.169-1.293l.121-.362h-2.45a4.714,4.714,0,0,1-.115-1.095,4.153,4.153,0,0,1,.17-1.292l.118-.363h-1.539a5.358,5.358,0,0,1,0-2.187h1.536l-.111-.359a4.4,4.4,0,0,1-.171-1.3,4.718,4.718,0,0,1,.112-1.094h2.446l-.112-.359a4.4,4.4,0,0,1-.171-1.3,4.624,4.624,0,0,1,.113-1.094h6.812a4.676,4.676,0,0,1,.112,1.094,4.371,4.371,0,0,1-.171,1.3l-.112.359h2.446a4.613,4.613,0,0,1,.113,1.094,4.4,4.4,0,0,1-.171,1.3l-.111.359h1.535a4.693,4.693,0,0,1,.111,1.094,4.816,4.816,0,0,1-.113,1.094h-1.541l.12.363a4.182,4.182,0,0,1,.17,1.292,4.753,4.753,0,0,1-.115,1.095h-2.449l.119.362a4.186,4.186,0,0,1,.169,1.293,4.7,4.7,0,0,1-.115,1.094Zm-5.913-4.938a4.694,4.694,0,0,1,.111,1.094,4.395,4.395,0,0,1-.171,1.3l-.11.357h5.36l-.112-.357a4.432,4.432,0,0,1-.169-1.3,4.681,4.681,0,0,1,.111-1.094h1.535l-.11-.359a4.332,4.332,0,0,1-.172-1.3,4.2,4.2,0,0,1,.169-1.292l.121-.363h-1.541a4.829,4.829,0,0,1-.113-1.094,4.221,4.221,0,0,1,.168-1.293l.121-.363h-5.376l.12.363a4.184,4.184,0,0,1,.169,1.293,4.747,4.747,0,0,1-.114,1.094h-1.539l.12.363a4.229,4.229,0,0,1,.168,1.292,4.415,4.415,0,0,1-.169,1.3l-.113.359Z" transform="translate(-5530.7 -1534.701)" fill="#fff"/>
</svg>
