<svg xmlns="http://www.w3.org/2000/svg" width="40" height="40" viewBox="0 0 40 40">
  <g id="fechar" transform="translate(-15365 22042)">
    <g id="Ret창ngulo_2102" data-name="Ret창ngulo 2102" transform="translate(15365 -22042)" fill="none" stroke="#000" stroke-width="1">
      <rect width="40" height="40" stroke="none"/>
      <rect x="0.5" y="0.5" width="39" height="39" fill="none"/>
    </g>
    <path id="Uni찾o_2" data-name="Uni찾o 2" d="M21821.32,14014a4.918,4.918,0,0,1-.311-1.783,4.57,4.57,0,0,1,.311-1.788h-3.293a5,5,0,0,1-.295-1.791,4.768,4.768,0,0,1,.295-1.786h-2.939a5.241,5.241,0,0,1-.287-1.787,5,5,0,0,1,.287-1.783h-2.2a4.571,4.571,0,0,1,.309,1.783,4.789,4.789,0,0,1-.309,1.787h-2.918a4.74,4.74,0,0,1,.287,1.786,4.961,4.961,0,0,1-.287,1.791h-3.293a4.72,4.72,0,0,1,.309,1.788,5.091,5.091,0,0,1-.309,1.783h-4.389a5.1,5.1,0,0,1-.295-1.783,4.74,4.74,0,0,1,.295-1.788h3.291a5,5,0,0,1-.287-1.791,4.779,4.779,0,0,1,.287-1.786h2.926a4.8,4.8,0,0,1-.295-1.787,4.587,4.587,0,0,1,.295-1.783h3.3a4.618,4.618,0,0,1-.3-1.788,4.414,4.414,0,0,1,.3-1.786h-3.3a4.843,4.843,0,0,1-.279-1.787,4.64,4.64,0,0,1,.279-1.783h-2.926a5.011,5.011,0,0,1-.287-1.789,4.727,4.727,0,0,1,.287-1.772h-3.291a5.143,5.143,0,0,1-.295-1.8,4.733,4.733,0,0,1,.295-1.771h4.389a4.717,4.717,0,0,1,.309,1.771,5.133,5.133,0,0,1-.309,1.8h3.293a4.688,4.688,0,0,1,.287,1.772,4.969,4.969,0,0,1-.287,1.789h2.918a4.6,4.6,0,0,1,.309,1.783,4.822,4.822,0,0,1-.309,1.787h2.2a5.137,5.137,0,0,1-.287-1.787,4.905,4.905,0,0,1,.287-1.783h2.939a4.721,4.721,0,0,1-.295-1.789,4.46,4.46,0,0,1,.295-1.772h3.293a4.96,4.96,0,0,1-.311-1.8,4.565,4.565,0,0,1,.311-1.771h4.389a4.743,4.743,0,0,1,.287,1.771,5.148,5.148,0,0,1-.287,1.8h-3.3a4.491,4.491,0,0,1,.3,1.772,4.757,4.757,0,0,1-.3,1.789h-2.928a4.773,4.773,0,0,1,.295,1.783,5,5,0,0,1-.295,1.787h-3.287a4.552,4.552,0,0,1,.3,1.786,4.769,4.769,0,0,1-.3,1.788h3.3a5.1,5.1,0,0,1,.279,1.783,5.347,5.347,0,0,1-.279,1.787h2.918a4.656,4.656,0,0,1,.293,1.786,4.873,4.873,0,0,1-.293,1.791h3.3a4.751,4.751,0,0,1,.287,1.788,5.1,5.1,0,0,1-.287,1.783Z" transform="translate(-6428.994 -36023.5)" stroke="rgba(0,0,0,0)" stroke-width="1"/>
  </g>
</svg>