<svg xmlns="http://www.w3.org/2000/svg" width="1275.08" height="14" viewBox="0 0 1275.08 14">
  <g id="Grupo_7530" data-name="Grupo 7530" transform="translate(10507 19910)">
    <g id="asterísco-p" transform="translate(-10507 -19910)">
      <path id="Caminho_9414" data-name="Caminho 9414" d="M12.236-38.08a5.89,5.89,0,0,1,.14,1.4,6.169,6.169,0,0,1-.14,1.4h-1.05a5.89,5.89,0,0,1,.14,1.4,6.169,6.169,0,0,1-.14,1.4,5.89,5.89,0,0,1,.14,1.4,6.169,6.169,0,0,1-.14,1.4h-2.1a6.169,6.169,0,0,1-.14-1.4,5.89,5.89,0,0,1,.14-1.4,6.169,6.169,0,0,1-.14-1.4,5.89,5.89,0,0,1,.14-1.4H8.036a6.169,6.169,0,0,1-.14-1.4,5.89,5.89,0,0,1,.14-1.4h1.05a6.169,6.169,0,0,1-.14-1.4,5.89,5.89,0,0,1,.14-1.4,6.169,6.169,0,0,1-.14-1.4,5.89,5.89,0,0,1,.14-1.4h2.1a5.89,5.89,0,0,1,.14,1.4,6.169,6.169,0,0,1-.14,1.4,5.89,5.89,0,0,1,.14,1.4,6.169,6.169,0,0,1-.14,1.4Zm-4.2-2.8a5.89,5.89,0,0,1,.14,1.4,6.169,6.169,0,0,1-.14,1.4h-2.8a6.169,6.169,0,0,1-.14-1.4,5.89,5.89,0,0,1,.14-1.4Zm7.14,1.4a6.169,6.169,0,0,1-.14,1.4h-2.8a6.169,6.169,0,0,1-.14-1.4,5.89,5.89,0,0,1,.14-1.4h2.8A5.89,5.89,0,0,1,15.176-39.48ZM5.1-33.88a5.89,5.89,0,0,1,.14-1.4h2.8a5.89,5.89,0,0,1,.14,1.4,6.169,6.169,0,0,1-.14,1.4h-2.8A6.169,6.169,0,0,1,5.1-33.88Zm9.94-1.4a5.89,5.89,0,0,1,.14,1.4,6.169,6.169,0,0,1-.14,1.4h-2.8a6.169,6.169,0,0,1-.14-1.4,5.89,5.89,0,0,1,.14-1.4Z" transform="translate(-5.096 43.68)"/>
    </g>
    <g id="asterísco-p-2" data-name="asterísco-p" transform="translate(-10484 -19910)">
      <path id="Caminho_9414-2" data-name="Caminho 9414" d="M12.236-38.08a5.89,5.89,0,0,1,.14,1.4,6.169,6.169,0,0,1-.14,1.4h-1.05a5.89,5.89,0,0,1,.14,1.4,6.169,6.169,0,0,1-.14,1.4,5.89,5.89,0,0,1,.14,1.4,6.169,6.169,0,0,1-.14,1.4h-2.1a6.169,6.169,0,0,1-.14-1.4,5.89,5.89,0,0,1,.14-1.4,6.169,6.169,0,0,1-.14-1.4,5.89,5.89,0,0,1,.14-1.4H8.036a6.169,6.169,0,0,1-.14-1.4,5.89,5.89,0,0,1,.14-1.4h1.05a6.169,6.169,0,0,1-.14-1.4,5.89,5.89,0,0,1,.14-1.4,6.169,6.169,0,0,1-.14-1.4,5.89,5.89,0,0,1,.14-1.4h2.1a5.89,5.89,0,0,1,.14,1.4,6.169,6.169,0,0,1-.14,1.4,5.89,5.89,0,0,1,.14,1.4,6.169,6.169,0,0,1-.14,1.4Zm-4.2-2.8a5.89,5.89,0,0,1,.14,1.4,6.169,6.169,0,0,1-.14,1.4h-2.8a6.169,6.169,0,0,1-.14-1.4,5.89,5.89,0,0,1,.14-1.4Zm7.14,1.4a6.169,6.169,0,0,1-.14,1.4h-2.8a6.169,6.169,0,0,1-.14-1.4,5.89,5.89,0,0,1,.14-1.4h2.8A5.89,5.89,0,0,1,15.176-39.48ZM5.1-33.88a5.89,5.89,0,0,1,.14-1.4h2.8a5.89,5.89,0,0,1,.14,1.4,6.169,6.169,0,0,1-.14,1.4h-2.8A6.169,6.169,0,0,1,5.1-33.88Zm9.94-1.4a5.89,5.89,0,0,1,.14,1.4,6.169,6.169,0,0,1-.14,1.4h-2.8a6.169,6.169,0,0,1-.14-1.4,5.89,5.89,0,0,1,.14-1.4Z" transform="translate(-5.096 43.68)"/>
    </g>
    <g id="asterísco-p-3" data-name="asterísco-p" transform="translate(-10461 -19910)">
      <path id="Caminho_9414-3" data-name="Caminho 9414" d="M12.236-38.08a5.89,5.89,0,0,1,.14,1.4,6.169,6.169,0,0,1-.14,1.4h-1.05a5.89,5.89,0,0,1,.14,1.4,6.169,6.169,0,0,1-.14,1.4,5.89,5.89,0,0,1,.14,1.4,6.169,6.169,0,0,1-.14,1.4h-2.1a6.169,6.169,0,0,1-.14-1.4,5.89,5.89,0,0,1,.14-1.4,6.169,6.169,0,0,1-.14-1.4,5.89,5.89,0,0,1,.14-1.4H8.036a6.169,6.169,0,0,1-.14-1.4,5.89,5.89,0,0,1,.14-1.4h1.05a6.169,6.169,0,0,1-.14-1.4,5.89,5.89,0,0,1,.14-1.4,6.169,6.169,0,0,1-.14-1.4,5.89,5.89,0,0,1,.14-1.4h2.1a5.89,5.89,0,0,1,.14,1.4,6.169,6.169,0,0,1-.14,1.4,5.89,5.89,0,0,1,.14,1.4,6.169,6.169,0,0,1-.14,1.4Zm-4.2-2.8a5.89,5.89,0,0,1,.14,1.4,6.169,6.169,0,0,1-.14,1.4h-2.8a6.169,6.169,0,0,1-.14-1.4,5.89,5.89,0,0,1,.14-1.4Zm7.14,1.4a6.169,6.169,0,0,1-.14,1.4h-2.8a6.169,6.169,0,0,1-.14-1.4,5.89,5.89,0,0,1,.14-1.4h2.8A5.89,5.89,0,0,1,15.176-39.48ZM5.1-33.88a5.89,5.89,0,0,1,.14-1.4h2.8a5.89,5.89,0,0,1,.14,1.4,6.169,6.169,0,0,1-.14,1.4h-2.8A6.169,6.169,0,0,1,5.1-33.88Zm9.94-1.4a5.89,5.89,0,0,1,.14,1.4,6.169,6.169,0,0,1-.14,1.4h-2.8a6.169,6.169,0,0,1-.14-1.4,5.89,5.89,0,0,1,.14-1.4Z" transform="translate(-5.096 43.68)"/>
    </g>
    <g id="asterísco-p-4" data-name="asterísco-p" transform="translate(-10438 -19910)">
      <path id="Caminho_9414-4" data-name="Caminho 9414" d="M12.236-38.08a5.89,5.89,0,0,1,.14,1.4,6.169,6.169,0,0,1-.14,1.4h-1.05a5.89,5.89,0,0,1,.14,1.4,6.169,6.169,0,0,1-.14,1.4,5.89,5.89,0,0,1,.14,1.4,6.169,6.169,0,0,1-.14,1.4h-2.1a6.169,6.169,0,0,1-.14-1.4,5.89,5.89,0,0,1,.14-1.4,6.169,6.169,0,0,1-.14-1.4,5.89,5.89,0,0,1,.14-1.4H8.036a6.169,6.169,0,0,1-.14-1.4,5.89,5.89,0,0,1,.14-1.4h1.05a6.169,6.169,0,0,1-.14-1.4,5.89,5.89,0,0,1,.14-1.4,6.169,6.169,0,0,1-.14-1.4,5.89,5.89,0,0,1,.14-1.4h2.1a5.89,5.89,0,0,1,.14,1.4,6.169,6.169,0,0,1-.14,1.4,5.89,5.89,0,0,1,.14,1.4,6.169,6.169,0,0,1-.14,1.4Zm-4.2-2.8a5.89,5.89,0,0,1,.14,1.4,6.169,6.169,0,0,1-.14,1.4h-2.8a6.169,6.169,0,0,1-.14-1.4,5.89,5.89,0,0,1,.14-1.4Zm7.14,1.4a6.169,6.169,0,0,1-.14,1.4h-2.8a6.169,6.169,0,0,1-.14-1.4,5.89,5.89,0,0,1,.14-1.4h2.8A5.89,5.89,0,0,1,15.176-39.48ZM5.1-33.88a5.89,5.89,0,0,1,.14-1.4h2.8a5.89,5.89,0,0,1,.14,1.4,6.169,6.169,0,0,1-.14,1.4h-2.8A6.169,6.169,0,0,1,5.1-33.88Zm9.94-1.4a5.89,5.89,0,0,1,.14,1.4,6.169,6.169,0,0,1-.14,1.4h-2.8a6.169,6.169,0,0,1-.14-1.4,5.89,5.89,0,0,1,.14-1.4Z" transform="translate(-5.096 43.68)"/>
    </g>
    <g id="asterísco-p-5" data-name="asterísco-p" transform="translate(-10415 -19910)">
      <path id="Caminho_9414-5" data-name="Caminho 9414" d="M12.236-38.08a5.89,5.89,0,0,1,.14,1.4,6.169,6.169,0,0,1-.14,1.4h-1.05a5.89,5.89,0,0,1,.14,1.4,6.169,6.169,0,0,1-.14,1.4,5.89,5.89,0,0,1,.14,1.4,6.169,6.169,0,0,1-.14,1.4h-2.1a6.169,6.169,0,0,1-.14-1.4,5.89,5.89,0,0,1,.14-1.4,6.169,6.169,0,0,1-.14-1.4,5.89,5.89,0,0,1,.14-1.4H8.036a6.169,6.169,0,0,1-.14-1.4,5.89,5.89,0,0,1,.14-1.4h1.05a6.169,6.169,0,0,1-.14-1.4,5.89,5.89,0,0,1,.14-1.4,6.169,6.169,0,0,1-.14-1.4,5.89,5.89,0,0,1,.14-1.4h2.1a5.89,5.89,0,0,1,.14,1.4,6.169,6.169,0,0,1-.14,1.4,5.89,5.89,0,0,1,.14,1.4,6.169,6.169,0,0,1-.14,1.4Zm-4.2-2.8a5.89,5.89,0,0,1,.14,1.4,6.169,6.169,0,0,1-.14,1.4h-2.8a6.169,6.169,0,0,1-.14-1.4,5.89,5.89,0,0,1,.14-1.4Zm7.14,1.4a6.169,6.169,0,0,1-.14,1.4h-2.8a6.169,6.169,0,0,1-.14-1.4,5.89,5.89,0,0,1,.14-1.4h2.8A5.89,5.89,0,0,1,15.176-39.48ZM5.1-33.88a5.89,5.89,0,0,1,.14-1.4h2.8a5.89,5.89,0,0,1,.14,1.4,6.169,6.169,0,0,1-.14,1.4h-2.8A6.169,6.169,0,0,1,5.1-33.88Zm9.94-1.4a5.89,5.89,0,0,1,.14,1.4,6.169,6.169,0,0,1-.14,1.4h-2.8a6.169,6.169,0,0,1-.14-1.4,5.89,5.89,0,0,1,.14-1.4Z" transform="translate(-5.096 43.68)"/>
    </g>
    <g id="asterísco-p-6" data-name="asterísco-p" transform="translate(-10392 -19910)">
      <path id="Caminho_9414-6" data-name="Caminho 9414" d="M12.236-38.08a5.89,5.89,0,0,1,.14,1.4,6.169,6.169,0,0,1-.14,1.4h-1.05a5.89,5.89,0,0,1,.14,1.4,6.169,6.169,0,0,1-.14,1.4,5.89,5.89,0,0,1,.14,1.4,6.169,6.169,0,0,1-.14,1.4h-2.1a6.169,6.169,0,0,1-.14-1.4,5.89,5.89,0,0,1,.14-1.4,6.169,6.169,0,0,1-.14-1.4,5.89,5.89,0,0,1,.14-1.4H8.036a6.169,6.169,0,0,1-.14-1.4,5.89,5.89,0,0,1,.14-1.4h1.05a6.169,6.169,0,0,1-.14-1.4,5.89,5.89,0,0,1,.14-1.4,6.169,6.169,0,0,1-.14-1.4,5.89,5.89,0,0,1,.14-1.4h2.1a5.89,5.89,0,0,1,.14,1.4,6.169,6.169,0,0,1-.14,1.4,5.89,5.89,0,0,1,.14,1.4,6.169,6.169,0,0,1-.14,1.4Zm-4.2-2.8a5.89,5.89,0,0,1,.14,1.4,6.169,6.169,0,0,1-.14,1.4h-2.8a6.169,6.169,0,0,1-.14-1.4,5.89,5.89,0,0,1,.14-1.4Zm7.14,1.4a6.169,6.169,0,0,1-.14,1.4h-2.8a6.169,6.169,0,0,1-.14-1.4,5.89,5.89,0,0,1,.14-1.4h2.8A5.89,5.89,0,0,1,15.176-39.48ZM5.1-33.88a5.89,5.89,0,0,1,.14-1.4h2.8a5.89,5.89,0,0,1,.14,1.4,6.169,6.169,0,0,1-.14,1.4h-2.8A6.169,6.169,0,0,1,5.1-33.88Zm9.94-1.4a5.89,5.89,0,0,1,.14,1.4,6.169,6.169,0,0,1-.14,1.4h-2.8a6.169,6.169,0,0,1-.14-1.4,5.89,5.89,0,0,1,.14-1.4Z" transform="translate(-5.096 43.68)"/>
    </g>
    <g id="asterísco-p-7" data-name="asterísco-p" transform="translate(-10369 -19910)">
      <path id="Caminho_9414-7" data-name="Caminho 9414" d="M12.236-38.08a5.89,5.89,0,0,1,.14,1.4,6.169,6.169,0,0,1-.14,1.4h-1.05a5.89,5.89,0,0,1,.14,1.4,6.169,6.169,0,0,1-.14,1.4,5.89,5.89,0,0,1,.14,1.4,6.169,6.169,0,0,1-.14,1.4h-2.1a6.169,6.169,0,0,1-.14-1.4,5.89,5.89,0,0,1,.14-1.4,6.169,6.169,0,0,1-.14-1.4,5.89,5.89,0,0,1,.14-1.4H8.036a6.169,6.169,0,0,1-.14-1.4,5.89,5.89,0,0,1,.14-1.4h1.05a6.169,6.169,0,0,1-.14-1.4,5.89,5.89,0,0,1,.14-1.4,6.169,6.169,0,0,1-.14-1.4,5.89,5.89,0,0,1,.14-1.4h2.1a5.89,5.89,0,0,1,.14,1.4,6.169,6.169,0,0,1-.14,1.4,5.89,5.89,0,0,1,.14,1.4,6.169,6.169,0,0,1-.14,1.4Zm-4.2-2.8a5.89,5.89,0,0,1,.14,1.4,6.169,6.169,0,0,1-.14,1.4h-2.8a6.169,6.169,0,0,1-.14-1.4,5.89,5.89,0,0,1,.14-1.4Zm7.14,1.4a6.169,6.169,0,0,1-.14,1.4h-2.8a6.169,6.169,0,0,1-.14-1.4,5.89,5.89,0,0,1,.14-1.4h2.8A5.89,5.89,0,0,1,15.176-39.48ZM5.1-33.88a5.89,5.89,0,0,1,.14-1.4h2.8a5.89,5.89,0,0,1,.14,1.4,6.169,6.169,0,0,1-.14,1.4h-2.8A6.169,6.169,0,0,1,5.1-33.88Zm9.94-1.4a5.89,5.89,0,0,1,.14,1.4,6.169,6.169,0,0,1-.14,1.4h-2.8a6.169,6.169,0,0,1-.14-1.4,5.89,5.89,0,0,1,.14-1.4Z" transform="translate(-5.096 43.68)"/>
    </g>
    <g id="asterísco-p-8" data-name="asterísco-p" transform="translate(-10346 -19910)">
      <path id="Caminho_9414-8" data-name="Caminho 9414" d="M12.236-38.08a5.89,5.89,0,0,1,.14,1.4,6.169,6.169,0,0,1-.14,1.4h-1.05a5.89,5.89,0,0,1,.14,1.4,6.169,6.169,0,0,1-.14,1.4,5.89,5.89,0,0,1,.14,1.4,6.169,6.169,0,0,1-.14,1.4h-2.1a6.169,6.169,0,0,1-.14-1.4,5.89,5.89,0,0,1,.14-1.4,6.169,6.169,0,0,1-.14-1.4,5.89,5.89,0,0,1,.14-1.4H8.036a6.169,6.169,0,0,1-.14-1.4,5.89,5.89,0,0,1,.14-1.4h1.05a6.169,6.169,0,0,1-.14-1.4,5.89,5.89,0,0,1,.14-1.4,6.169,6.169,0,0,1-.14-1.4,5.89,5.89,0,0,1,.14-1.4h2.1a5.89,5.89,0,0,1,.14,1.4,6.169,6.169,0,0,1-.14,1.4,5.89,5.89,0,0,1,.14,1.4,6.169,6.169,0,0,1-.14,1.4Zm-4.2-2.8a5.89,5.89,0,0,1,.14,1.4,6.169,6.169,0,0,1-.14,1.4h-2.8a6.169,6.169,0,0,1-.14-1.4,5.89,5.89,0,0,1,.14-1.4Zm7.14,1.4a6.169,6.169,0,0,1-.14,1.4h-2.8a6.169,6.169,0,0,1-.14-1.4,5.89,5.89,0,0,1,.14-1.4h2.8A5.89,5.89,0,0,1,15.176-39.48ZM5.1-33.88a5.89,5.89,0,0,1,.14-1.4h2.8a5.89,5.89,0,0,1,.14,1.4,6.169,6.169,0,0,1-.14,1.4h-2.8A6.169,6.169,0,0,1,5.1-33.88Zm9.94-1.4a5.89,5.89,0,0,1,.14,1.4,6.169,6.169,0,0,1-.14,1.4h-2.8a6.169,6.169,0,0,1-.14-1.4,5.89,5.89,0,0,1,.14-1.4Z" transform="translate(-5.096 43.68)"/>
    </g>
    <g id="asterísco-p-9" data-name="asterísco-p" transform="translate(-10323 -19910)">
      <path id="Caminho_9414-9" data-name="Caminho 9414" d="M12.236-38.08a5.89,5.89,0,0,1,.14,1.4,6.169,6.169,0,0,1-.14,1.4h-1.05a5.89,5.89,0,0,1,.14,1.4,6.169,6.169,0,0,1-.14,1.4,5.89,5.89,0,0,1,.14,1.4,6.169,6.169,0,0,1-.14,1.4h-2.1a6.169,6.169,0,0,1-.14-1.4,5.89,5.89,0,0,1,.14-1.4,6.169,6.169,0,0,1-.14-1.4,5.89,5.89,0,0,1,.14-1.4H8.036a6.169,6.169,0,0,1-.14-1.4,5.89,5.89,0,0,1,.14-1.4h1.05a6.169,6.169,0,0,1-.14-1.4,5.89,5.89,0,0,1,.14-1.4,6.169,6.169,0,0,1-.14-1.4,5.89,5.89,0,0,1,.14-1.4h2.1a5.89,5.89,0,0,1,.14,1.4,6.169,6.169,0,0,1-.14,1.4,5.89,5.89,0,0,1,.14,1.4,6.169,6.169,0,0,1-.14,1.4Zm-4.2-2.8a5.89,5.89,0,0,1,.14,1.4,6.169,6.169,0,0,1-.14,1.4h-2.8a6.169,6.169,0,0,1-.14-1.4,5.89,5.89,0,0,1,.14-1.4Zm7.14,1.4a6.169,6.169,0,0,1-.14,1.4h-2.8a6.169,6.169,0,0,1-.14-1.4,5.89,5.89,0,0,1,.14-1.4h2.8A5.89,5.89,0,0,1,15.176-39.48ZM5.1-33.88a5.89,5.89,0,0,1,.14-1.4h2.8a5.89,5.89,0,0,1,.14,1.4,6.169,6.169,0,0,1-.14,1.4h-2.8A6.169,6.169,0,0,1,5.1-33.88Zm9.94-1.4a5.89,5.89,0,0,1,.14,1.4,6.169,6.169,0,0,1-.14,1.4h-2.8a6.169,6.169,0,0,1-.14-1.4,5.89,5.89,0,0,1,.14-1.4Z" transform="translate(-5.096 43.68)"/>
    </g>
    <g id="asterísco-p-10" data-name="asterísco-p" transform="translate(-10300 -19910)">
      <path id="Caminho_9414-10" data-name="Caminho 9414" d="M12.236-38.08a5.89,5.89,0,0,1,.14,1.4,6.169,6.169,0,0,1-.14,1.4h-1.05a5.89,5.89,0,0,1,.14,1.4,6.169,6.169,0,0,1-.14,1.4,5.89,5.89,0,0,1,.14,1.4,6.169,6.169,0,0,1-.14,1.4h-2.1a6.169,6.169,0,0,1-.14-1.4,5.89,5.89,0,0,1,.14-1.4,6.169,6.169,0,0,1-.14-1.4,5.89,5.89,0,0,1,.14-1.4H8.036a6.169,6.169,0,0,1-.14-1.4,5.89,5.89,0,0,1,.14-1.4h1.05a6.169,6.169,0,0,1-.14-1.4,5.89,5.89,0,0,1,.14-1.4,6.169,6.169,0,0,1-.14-1.4,5.89,5.89,0,0,1,.14-1.4h2.1a5.89,5.89,0,0,1,.14,1.4,6.169,6.169,0,0,1-.14,1.4,5.89,5.89,0,0,1,.14,1.4,6.169,6.169,0,0,1-.14,1.4Zm-4.2-2.8a5.89,5.89,0,0,1,.14,1.4,6.169,6.169,0,0,1-.14,1.4h-2.8a6.169,6.169,0,0,1-.14-1.4,5.89,5.89,0,0,1,.14-1.4Zm7.14,1.4a6.169,6.169,0,0,1-.14,1.4h-2.8a6.169,6.169,0,0,1-.14-1.4,5.89,5.89,0,0,1,.14-1.4h2.8A5.89,5.89,0,0,1,15.176-39.48ZM5.1-33.88a5.89,5.89,0,0,1,.14-1.4h2.8a5.89,5.89,0,0,1,.14,1.4,6.169,6.169,0,0,1-.14,1.4h-2.8A6.169,6.169,0,0,1,5.1-33.88Zm9.94-1.4a5.89,5.89,0,0,1,.14,1.4,6.169,6.169,0,0,1-.14,1.4h-2.8a6.169,6.169,0,0,1-.14-1.4,5.89,5.89,0,0,1,.14-1.4Z" transform="translate(-5.096 43.68)"/>
    </g>
    <g id="asterísco-p-11" data-name="asterísco-p" transform="translate(-10277 -19910)">
      <path id="Caminho_9414-11" data-name="Caminho 9414" d="M12.236-38.08a5.89,5.89,0,0,1,.14,1.4,6.169,6.169,0,0,1-.14,1.4h-1.05a5.89,5.89,0,0,1,.14,1.4,6.169,6.169,0,0,1-.14,1.4,5.89,5.89,0,0,1,.14,1.4,6.169,6.169,0,0,1-.14,1.4h-2.1a6.169,6.169,0,0,1-.14-1.4,5.89,5.89,0,0,1,.14-1.4,6.169,6.169,0,0,1-.14-1.4,5.89,5.89,0,0,1,.14-1.4H8.036a6.169,6.169,0,0,1-.14-1.4,5.89,5.89,0,0,1,.14-1.4h1.05a6.169,6.169,0,0,1-.14-1.4,5.89,5.89,0,0,1,.14-1.4,6.169,6.169,0,0,1-.14-1.4,5.89,5.89,0,0,1,.14-1.4h2.1a5.89,5.89,0,0,1,.14,1.4,6.169,6.169,0,0,1-.14,1.4,5.89,5.89,0,0,1,.14,1.4,6.169,6.169,0,0,1-.14,1.4Zm-4.2-2.8a5.89,5.89,0,0,1,.14,1.4,6.169,6.169,0,0,1-.14,1.4h-2.8a6.169,6.169,0,0,1-.14-1.4,5.89,5.89,0,0,1,.14-1.4Zm7.14,1.4a6.169,6.169,0,0,1-.14,1.4h-2.8a6.169,6.169,0,0,1-.14-1.4,5.89,5.89,0,0,1,.14-1.4h2.8A5.89,5.89,0,0,1,15.176-39.48ZM5.1-33.88a5.89,5.89,0,0,1,.14-1.4h2.8a5.89,5.89,0,0,1,.14,1.4,6.169,6.169,0,0,1-.14,1.4h-2.8A6.169,6.169,0,0,1,5.1-33.88Zm9.94-1.4a5.89,5.89,0,0,1,.14,1.4,6.169,6.169,0,0,1-.14,1.4h-2.8a6.169,6.169,0,0,1-.14-1.4,5.89,5.89,0,0,1,.14-1.4Z" transform="translate(-5.096 43.68)"/>
    </g>
    <g id="asterísco-p-12" data-name="asterísco-p" transform="translate(-10254 -19910)">
      <path id="Caminho_9414-12" data-name="Caminho 9414" d="M12.236-38.08a5.89,5.89,0,0,1,.14,1.4,6.169,6.169,0,0,1-.14,1.4h-1.05a5.89,5.89,0,0,1,.14,1.4,6.169,6.169,0,0,1-.14,1.4,5.89,5.89,0,0,1,.14,1.4,6.169,6.169,0,0,1-.14,1.4h-2.1a6.169,6.169,0,0,1-.14-1.4,5.89,5.89,0,0,1,.14-1.4,6.169,6.169,0,0,1-.14-1.4,5.89,5.89,0,0,1,.14-1.4H8.036a6.169,6.169,0,0,1-.14-1.4,5.89,5.89,0,0,1,.14-1.4h1.05a6.169,6.169,0,0,1-.14-1.4,5.89,5.89,0,0,1,.14-1.4,6.169,6.169,0,0,1-.14-1.4,5.89,5.89,0,0,1,.14-1.4h2.1a5.89,5.89,0,0,1,.14,1.4,6.169,6.169,0,0,1-.14,1.4,5.89,5.89,0,0,1,.14,1.4,6.169,6.169,0,0,1-.14,1.4Zm-4.2-2.8a5.89,5.89,0,0,1,.14,1.4,6.169,6.169,0,0,1-.14,1.4h-2.8a6.169,6.169,0,0,1-.14-1.4,5.89,5.89,0,0,1,.14-1.4Zm7.14,1.4a6.169,6.169,0,0,1-.14,1.4h-2.8a6.169,6.169,0,0,1-.14-1.4,5.89,5.89,0,0,1,.14-1.4h2.8A5.89,5.89,0,0,1,15.176-39.48ZM5.1-33.88a5.89,5.89,0,0,1,.14-1.4h2.8a5.89,5.89,0,0,1,.14,1.4,6.169,6.169,0,0,1-.14,1.4h-2.8A6.169,6.169,0,0,1,5.1-33.88Zm9.94-1.4a5.89,5.89,0,0,1,.14,1.4,6.169,6.169,0,0,1-.14,1.4h-2.8a6.169,6.169,0,0,1-.14-1.4,5.89,5.89,0,0,1,.14-1.4Z" transform="translate(-5.096 43.68)"/>
    </g>
    <g id="asterísco-p-13" data-name="asterísco-p" transform="translate(-10231 -19910)">
      <path id="Caminho_9414-13" data-name="Caminho 9414" d="M12.236-38.08a5.89,5.89,0,0,1,.14,1.4,6.169,6.169,0,0,1-.14,1.4h-1.05a5.89,5.89,0,0,1,.14,1.4,6.169,6.169,0,0,1-.14,1.4,5.89,5.89,0,0,1,.14,1.4,6.169,6.169,0,0,1-.14,1.4h-2.1a6.169,6.169,0,0,1-.14-1.4,5.89,5.89,0,0,1,.14-1.4,6.169,6.169,0,0,1-.14-1.4,5.89,5.89,0,0,1,.14-1.4H8.036a6.169,6.169,0,0,1-.14-1.4,5.89,5.89,0,0,1,.14-1.4h1.05a6.169,6.169,0,0,1-.14-1.4,5.89,5.89,0,0,1,.14-1.4,6.169,6.169,0,0,1-.14-1.4,5.89,5.89,0,0,1,.14-1.4h2.1a5.89,5.89,0,0,1,.14,1.4,6.169,6.169,0,0,1-.14,1.4,5.89,5.89,0,0,1,.14,1.4,6.169,6.169,0,0,1-.14,1.4Zm-4.2-2.8a5.89,5.89,0,0,1,.14,1.4,6.169,6.169,0,0,1-.14,1.4h-2.8a6.169,6.169,0,0,1-.14-1.4,5.89,5.89,0,0,1,.14-1.4Zm7.14,1.4a6.169,6.169,0,0,1-.14,1.4h-2.8a6.169,6.169,0,0,1-.14-1.4,5.89,5.89,0,0,1,.14-1.4h2.8A5.89,5.89,0,0,1,15.176-39.48ZM5.1-33.88a5.89,5.89,0,0,1,.14-1.4h2.8a5.89,5.89,0,0,1,.14,1.4,6.169,6.169,0,0,1-.14,1.4h-2.8A6.169,6.169,0,0,1,5.1-33.88Zm9.94-1.4a5.89,5.89,0,0,1,.14,1.4,6.169,6.169,0,0,1-.14,1.4h-2.8a6.169,6.169,0,0,1-.14-1.4,5.89,5.89,0,0,1,.14-1.4Z" transform="translate(-5.096 43.68)"/>
    </g>
    <g id="asterísco-p-14" data-name="asterísco-p" transform="translate(-10208 -19910)">
      <path id="Caminho_9414-14" data-name="Caminho 9414" d="M12.236-38.08a5.89,5.89,0,0,1,.14,1.4,6.169,6.169,0,0,1-.14,1.4h-1.05a5.89,5.89,0,0,1,.14,1.4,6.169,6.169,0,0,1-.14,1.4,5.89,5.89,0,0,1,.14,1.4,6.169,6.169,0,0,1-.14,1.4h-2.1a6.169,6.169,0,0,1-.14-1.4,5.89,5.89,0,0,1,.14-1.4,6.169,6.169,0,0,1-.14-1.4,5.89,5.89,0,0,1,.14-1.4H8.036a6.169,6.169,0,0,1-.14-1.4,5.89,5.89,0,0,1,.14-1.4h1.05a6.169,6.169,0,0,1-.14-1.4,5.89,5.89,0,0,1,.14-1.4,6.169,6.169,0,0,1-.14-1.4,5.89,5.89,0,0,1,.14-1.4h2.1a5.89,5.89,0,0,1,.14,1.4,6.169,6.169,0,0,1-.14,1.4,5.89,5.89,0,0,1,.14,1.4,6.169,6.169,0,0,1-.14,1.4Zm-4.2-2.8a5.89,5.89,0,0,1,.14,1.4,6.169,6.169,0,0,1-.14,1.4h-2.8a6.169,6.169,0,0,1-.14-1.4,5.89,5.89,0,0,1,.14-1.4Zm7.14,1.4a6.169,6.169,0,0,1-.14,1.4h-2.8a6.169,6.169,0,0,1-.14-1.4,5.89,5.89,0,0,1,.14-1.4h2.8A5.89,5.89,0,0,1,15.176-39.48ZM5.1-33.88a5.89,5.89,0,0,1,.14-1.4h2.8a5.89,5.89,0,0,1,.14,1.4,6.169,6.169,0,0,1-.14,1.4h-2.8A6.169,6.169,0,0,1,5.1-33.88Zm9.94-1.4a5.89,5.89,0,0,1,.14,1.4,6.169,6.169,0,0,1-.14,1.4h-2.8a6.169,6.169,0,0,1-.14-1.4,5.89,5.89,0,0,1,.14-1.4Z" transform="translate(-5.096 43.68)"/>
    </g>
    <g id="asterísco-p-15" data-name="asterísco-p" transform="translate(-10185 -19910)">
      <path id="Caminho_9414-15" data-name="Caminho 9414" d="M12.236-38.08a5.89,5.89,0,0,1,.14,1.4,6.169,6.169,0,0,1-.14,1.4h-1.05a5.89,5.89,0,0,1,.14,1.4,6.169,6.169,0,0,1-.14,1.4,5.89,5.89,0,0,1,.14,1.4,6.169,6.169,0,0,1-.14,1.4h-2.1a6.169,6.169,0,0,1-.14-1.4,5.89,5.89,0,0,1,.14-1.4,6.169,6.169,0,0,1-.14-1.4,5.89,5.89,0,0,1,.14-1.4H8.036a6.169,6.169,0,0,1-.14-1.4,5.89,5.89,0,0,1,.14-1.4h1.05a6.169,6.169,0,0,1-.14-1.4,5.89,5.89,0,0,1,.14-1.4,6.169,6.169,0,0,1-.14-1.4,5.89,5.89,0,0,1,.14-1.4h2.1a5.89,5.89,0,0,1,.14,1.4,6.169,6.169,0,0,1-.14,1.4,5.89,5.89,0,0,1,.14,1.4,6.169,6.169,0,0,1-.14,1.4Zm-4.2-2.8a5.89,5.89,0,0,1,.14,1.4,6.169,6.169,0,0,1-.14,1.4h-2.8a6.169,6.169,0,0,1-.14-1.4,5.89,5.89,0,0,1,.14-1.4Zm7.14,1.4a6.169,6.169,0,0,1-.14,1.4h-2.8a6.169,6.169,0,0,1-.14-1.4,5.89,5.89,0,0,1,.14-1.4h2.8A5.89,5.89,0,0,1,15.176-39.48ZM5.1-33.88a5.89,5.89,0,0,1,.14-1.4h2.8a5.89,5.89,0,0,1,.14,1.4,6.169,6.169,0,0,1-.14,1.4h-2.8A6.169,6.169,0,0,1,5.1-33.88Zm9.94-1.4a5.89,5.89,0,0,1,.14,1.4,6.169,6.169,0,0,1-.14,1.4h-2.8a6.169,6.169,0,0,1-.14-1.4,5.89,5.89,0,0,1,.14-1.4Z" transform="translate(-5.096 43.68)"/>
    </g>
    <g id="asterísco-p-16" data-name="asterísco-p" transform="translate(-10162 -19910)">
      <path id="Caminho_9414-16" data-name="Caminho 9414" d="M12.236-38.08a5.89,5.89,0,0,1,.14,1.4,6.169,6.169,0,0,1-.14,1.4h-1.05a5.89,5.89,0,0,1,.14,1.4,6.169,6.169,0,0,1-.14,1.4,5.89,5.89,0,0,1,.14,1.4,6.169,6.169,0,0,1-.14,1.4h-2.1a6.169,6.169,0,0,1-.14-1.4,5.89,5.89,0,0,1,.14-1.4,6.169,6.169,0,0,1-.14-1.4,5.89,5.89,0,0,1,.14-1.4H8.036a6.169,6.169,0,0,1-.14-1.4,5.89,5.89,0,0,1,.14-1.4h1.05a6.169,6.169,0,0,1-.14-1.4,5.89,5.89,0,0,1,.14-1.4,6.169,6.169,0,0,1-.14-1.4,5.89,5.89,0,0,1,.14-1.4h2.1a5.89,5.89,0,0,1,.14,1.4,6.169,6.169,0,0,1-.14,1.4,5.89,5.89,0,0,1,.14,1.4,6.169,6.169,0,0,1-.14,1.4Zm-4.2-2.8a5.89,5.89,0,0,1,.14,1.4,6.169,6.169,0,0,1-.14,1.4h-2.8a6.169,6.169,0,0,1-.14-1.4,5.89,5.89,0,0,1,.14-1.4Zm7.14,1.4a6.169,6.169,0,0,1-.14,1.4h-2.8a6.169,6.169,0,0,1-.14-1.4,5.89,5.89,0,0,1,.14-1.4h2.8A5.89,5.89,0,0,1,15.176-39.48ZM5.1-33.88a5.89,5.89,0,0,1,.14-1.4h2.8a5.89,5.89,0,0,1,.14,1.4,6.169,6.169,0,0,1-.14,1.4h-2.8A6.169,6.169,0,0,1,5.1-33.88Zm9.94-1.4a5.89,5.89,0,0,1,.14,1.4,6.169,6.169,0,0,1-.14,1.4h-2.8a6.169,6.169,0,0,1-.14-1.4,5.89,5.89,0,0,1,.14-1.4Z" transform="translate(-5.096 43.68)"/>
    </g>
    <g id="asterísco-p-17" data-name="asterísco-p" transform="translate(-10139 -19910)">
      <path id="Caminho_9414-17" data-name="Caminho 9414" d="M12.236-38.08a5.89,5.89,0,0,1,.14,1.4,6.169,6.169,0,0,1-.14,1.4h-1.05a5.89,5.89,0,0,1,.14,1.4,6.169,6.169,0,0,1-.14,1.4,5.89,5.89,0,0,1,.14,1.4,6.169,6.169,0,0,1-.14,1.4h-2.1a6.169,6.169,0,0,1-.14-1.4,5.89,5.89,0,0,1,.14-1.4,6.169,6.169,0,0,1-.14-1.4,5.89,5.89,0,0,1,.14-1.4H8.036a6.169,6.169,0,0,1-.14-1.4,5.89,5.89,0,0,1,.14-1.4h1.05a6.169,6.169,0,0,1-.14-1.4,5.89,5.89,0,0,1,.14-1.4,6.169,6.169,0,0,1-.14-1.4,5.89,5.89,0,0,1,.14-1.4h2.1a5.89,5.89,0,0,1,.14,1.4,6.169,6.169,0,0,1-.14,1.4,5.89,5.89,0,0,1,.14,1.4,6.169,6.169,0,0,1-.14,1.4Zm-4.2-2.8a5.89,5.89,0,0,1,.14,1.4,6.169,6.169,0,0,1-.14,1.4h-2.8a6.169,6.169,0,0,1-.14-1.4,5.89,5.89,0,0,1,.14-1.4Zm7.14,1.4a6.169,6.169,0,0,1-.14,1.4h-2.8a6.169,6.169,0,0,1-.14-1.4,5.89,5.89,0,0,1,.14-1.4h2.8A5.89,5.89,0,0,1,15.176-39.48ZM5.1-33.88a5.89,5.89,0,0,1,.14-1.4h2.8a5.89,5.89,0,0,1,.14,1.4,6.169,6.169,0,0,1-.14,1.4h-2.8A6.169,6.169,0,0,1,5.1-33.88Zm9.94-1.4a5.89,5.89,0,0,1,.14,1.4,6.169,6.169,0,0,1-.14,1.4h-2.8a6.169,6.169,0,0,1-.14-1.4,5.89,5.89,0,0,1,.14-1.4Z" transform="translate(-5.096 43.68)"/>
    </g>
    <g id="asterísco-p-18" data-name="asterísco-p" transform="translate(-10116 -19910)">
      <path id="Caminho_9414-18" data-name="Caminho 9414" d="M12.236-38.08a5.89,5.89,0,0,1,.14,1.4,6.169,6.169,0,0,1-.14,1.4h-1.05a5.89,5.89,0,0,1,.14,1.4,6.169,6.169,0,0,1-.14,1.4,5.89,5.89,0,0,1,.14,1.4,6.169,6.169,0,0,1-.14,1.4h-2.1a6.169,6.169,0,0,1-.14-1.4,5.89,5.89,0,0,1,.14-1.4,6.169,6.169,0,0,1-.14-1.4,5.89,5.89,0,0,1,.14-1.4H8.036a6.169,6.169,0,0,1-.14-1.4,5.89,5.89,0,0,1,.14-1.4h1.05a6.169,6.169,0,0,1-.14-1.4,5.89,5.89,0,0,1,.14-1.4,6.169,6.169,0,0,1-.14-1.4,5.89,5.89,0,0,1,.14-1.4h2.1a5.89,5.89,0,0,1,.14,1.4,6.169,6.169,0,0,1-.14,1.4,5.89,5.89,0,0,1,.14,1.4,6.169,6.169,0,0,1-.14,1.4Zm-4.2-2.8a5.89,5.89,0,0,1,.14,1.4,6.169,6.169,0,0,1-.14,1.4h-2.8a6.169,6.169,0,0,1-.14-1.4,5.89,5.89,0,0,1,.14-1.4Zm7.14,1.4a6.169,6.169,0,0,1-.14,1.4h-2.8a6.169,6.169,0,0,1-.14-1.4,5.89,5.89,0,0,1,.14-1.4h2.8A5.89,5.89,0,0,1,15.176-39.48ZM5.1-33.88a5.89,5.89,0,0,1,.14-1.4h2.8a5.89,5.89,0,0,1,.14,1.4,6.169,6.169,0,0,1-.14,1.4h-2.8A6.169,6.169,0,0,1,5.1-33.88Zm9.94-1.4a5.89,5.89,0,0,1,.14,1.4,6.169,6.169,0,0,1-.14,1.4h-2.8a6.169,6.169,0,0,1-.14-1.4,5.89,5.89,0,0,1,.14-1.4Z" transform="translate(-5.096 43.68)"/>
    </g>
    <g id="asterísco-p-19" data-name="asterísco-p" transform="translate(-10093 -19910)">
      <path id="Caminho_9414-19" data-name="Caminho 9414" d="M12.236-38.08a5.89,5.89,0,0,1,.14,1.4,6.169,6.169,0,0,1-.14,1.4h-1.05a5.89,5.89,0,0,1,.14,1.4,6.169,6.169,0,0,1-.14,1.4,5.89,5.89,0,0,1,.14,1.4,6.169,6.169,0,0,1-.14,1.4h-2.1a6.169,6.169,0,0,1-.14-1.4,5.89,5.89,0,0,1,.14-1.4,6.169,6.169,0,0,1-.14-1.4,5.89,5.89,0,0,1,.14-1.4H8.036a6.169,6.169,0,0,1-.14-1.4,5.89,5.89,0,0,1,.14-1.4h1.05a6.169,6.169,0,0,1-.14-1.4,5.89,5.89,0,0,1,.14-1.4,6.169,6.169,0,0,1-.14-1.4,5.89,5.89,0,0,1,.14-1.4h2.1a5.89,5.89,0,0,1,.14,1.4,6.169,6.169,0,0,1-.14,1.4,5.89,5.89,0,0,1,.14,1.4,6.169,6.169,0,0,1-.14,1.4Zm-4.2-2.8a5.89,5.89,0,0,1,.14,1.4,6.169,6.169,0,0,1-.14,1.4h-2.8a6.169,6.169,0,0,1-.14-1.4,5.89,5.89,0,0,1,.14-1.4Zm7.14,1.4a6.169,6.169,0,0,1-.14,1.4h-2.8a6.169,6.169,0,0,1-.14-1.4,5.89,5.89,0,0,1,.14-1.4h2.8A5.89,5.89,0,0,1,15.176-39.48ZM5.1-33.88a5.89,5.89,0,0,1,.14-1.4h2.8a5.89,5.89,0,0,1,.14,1.4,6.169,6.169,0,0,1-.14,1.4h-2.8A6.169,6.169,0,0,1,5.1-33.88Zm9.94-1.4a5.89,5.89,0,0,1,.14,1.4,6.169,6.169,0,0,1-.14,1.4h-2.8a6.169,6.169,0,0,1-.14-1.4,5.89,5.89,0,0,1,.14-1.4Z" transform="translate(-5.096 43.68)"/>
    </g>
    <g id="asterísco-p-20" data-name="asterísco-p" transform="translate(-10070 -19910)">
      <path id="Caminho_9414-20" data-name="Caminho 9414" d="M12.236-38.08a5.89,5.89,0,0,1,.14,1.4,6.169,6.169,0,0,1-.14,1.4h-1.05a5.89,5.89,0,0,1,.14,1.4,6.169,6.169,0,0,1-.14,1.4,5.89,5.89,0,0,1,.14,1.4,6.169,6.169,0,0,1-.14,1.4h-2.1a6.169,6.169,0,0,1-.14-1.4,5.89,5.89,0,0,1,.14-1.4,6.169,6.169,0,0,1-.14-1.4,5.89,5.89,0,0,1,.14-1.4H8.036a6.169,6.169,0,0,1-.14-1.4,5.89,5.89,0,0,1,.14-1.4h1.05a6.169,6.169,0,0,1-.14-1.4,5.89,5.89,0,0,1,.14-1.4,6.169,6.169,0,0,1-.14-1.4,5.89,5.89,0,0,1,.14-1.4h2.1a5.89,5.89,0,0,1,.14,1.4,6.169,6.169,0,0,1-.14,1.4,5.89,5.89,0,0,1,.14,1.4,6.169,6.169,0,0,1-.14,1.4Zm-4.2-2.8a5.89,5.89,0,0,1,.14,1.4,6.169,6.169,0,0,1-.14,1.4h-2.8a6.169,6.169,0,0,1-.14-1.4,5.89,5.89,0,0,1,.14-1.4Zm7.14,1.4a6.169,6.169,0,0,1-.14,1.4h-2.8a6.169,6.169,0,0,1-.14-1.4,5.89,5.89,0,0,1,.14-1.4h2.8A5.89,5.89,0,0,1,15.176-39.48ZM5.1-33.88a5.89,5.89,0,0,1,.14-1.4h2.8a5.89,5.89,0,0,1,.14,1.4,6.169,6.169,0,0,1-.14,1.4h-2.8A6.169,6.169,0,0,1,5.1-33.88Zm9.94-1.4a5.89,5.89,0,0,1,.14,1.4,6.169,6.169,0,0,1-.14,1.4h-2.8a6.169,6.169,0,0,1-.14-1.4,5.89,5.89,0,0,1,.14-1.4Z" transform="translate(-5.096 43.68)"/>
    </g>
    <g id="asterísco-p-21" data-name="asterísco-p" transform="translate(-10047 -19910)">
      <path id="Caminho_9414-21" data-name="Caminho 9414" d="M12.236-38.08a5.89,5.89,0,0,1,.14,1.4,6.169,6.169,0,0,1-.14,1.4h-1.05a5.89,5.89,0,0,1,.14,1.4,6.169,6.169,0,0,1-.14,1.4,5.89,5.89,0,0,1,.14,1.4,6.169,6.169,0,0,1-.14,1.4h-2.1a6.169,6.169,0,0,1-.14-1.4,5.89,5.89,0,0,1,.14-1.4,6.169,6.169,0,0,1-.14-1.4,5.89,5.89,0,0,1,.14-1.4H8.036a6.169,6.169,0,0,1-.14-1.4,5.89,5.89,0,0,1,.14-1.4h1.05a6.169,6.169,0,0,1-.14-1.4,5.89,5.89,0,0,1,.14-1.4,6.169,6.169,0,0,1-.14-1.4,5.89,5.89,0,0,1,.14-1.4h2.1a5.89,5.89,0,0,1,.14,1.4,6.169,6.169,0,0,1-.14,1.4,5.89,5.89,0,0,1,.14,1.4,6.169,6.169,0,0,1-.14,1.4Zm-4.2-2.8a5.89,5.89,0,0,1,.14,1.4,6.169,6.169,0,0,1-.14,1.4h-2.8a6.169,6.169,0,0,1-.14-1.4,5.89,5.89,0,0,1,.14-1.4Zm7.14,1.4a6.169,6.169,0,0,1-.14,1.4h-2.8a6.169,6.169,0,0,1-.14-1.4,5.89,5.89,0,0,1,.14-1.4h2.8A5.89,5.89,0,0,1,15.176-39.48ZM5.1-33.88a5.89,5.89,0,0,1,.14-1.4h2.8a5.89,5.89,0,0,1,.14,1.4,6.169,6.169,0,0,1-.14,1.4h-2.8A6.169,6.169,0,0,1,5.1-33.88Zm9.94-1.4a5.89,5.89,0,0,1,.14,1.4,6.169,6.169,0,0,1-.14,1.4h-2.8a6.169,6.169,0,0,1-.14-1.4,5.89,5.89,0,0,1,.14-1.4Z" transform="translate(-5.096 43.68)"/>
    </g>
    <g id="asterísco-p-22" data-name="asterísco-p" transform="translate(-10024 -19910)">
      <path id="Caminho_9414-22" data-name="Caminho 9414" d="M12.236-38.08a5.89,5.89,0,0,1,.14,1.4,6.169,6.169,0,0,1-.14,1.4h-1.05a5.89,5.89,0,0,1,.14,1.4,6.169,6.169,0,0,1-.14,1.4,5.89,5.89,0,0,1,.14,1.4,6.169,6.169,0,0,1-.14,1.4h-2.1a6.169,6.169,0,0,1-.14-1.4,5.89,5.89,0,0,1,.14-1.4,6.169,6.169,0,0,1-.14-1.4,5.89,5.89,0,0,1,.14-1.4H8.036a6.169,6.169,0,0,1-.14-1.4,5.89,5.89,0,0,1,.14-1.4h1.05a6.169,6.169,0,0,1-.14-1.4,5.89,5.89,0,0,1,.14-1.4,6.169,6.169,0,0,1-.14-1.4,5.89,5.89,0,0,1,.14-1.4h2.1a5.89,5.89,0,0,1,.14,1.4,6.169,6.169,0,0,1-.14,1.4,5.89,5.89,0,0,1,.14,1.4,6.169,6.169,0,0,1-.14,1.4Zm-4.2-2.8a5.89,5.89,0,0,1,.14,1.4,6.169,6.169,0,0,1-.14,1.4h-2.8a6.169,6.169,0,0,1-.14-1.4,5.89,5.89,0,0,1,.14-1.4Zm7.14,1.4a6.169,6.169,0,0,1-.14,1.4h-2.8a6.169,6.169,0,0,1-.14-1.4,5.89,5.89,0,0,1,.14-1.4h2.8A5.89,5.89,0,0,1,15.176-39.48ZM5.1-33.88a5.89,5.89,0,0,1,.14-1.4h2.8a5.89,5.89,0,0,1,.14,1.4,6.169,6.169,0,0,1-.14,1.4h-2.8A6.169,6.169,0,0,1,5.1-33.88Zm9.94-1.4a5.89,5.89,0,0,1,.14,1.4,6.169,6.169,0,0,1-.14,1.4h-2.8a6.169,6.169,0,0,1-.14-1.4,5.89,5.89,0,0,1,.14-1.4Z" transform="translate(-5.096 43.68)"/>
    </g>
    <g id="asterísco-p-23" data-name="asterísco-p" transform="translate(-10001 -19910)">
      <path id="Caminho_9414-23" data-name="Caminho 9414" d="M12.236-38.08a5.89,5.89,0,0,1,.14,1.4,6.169,6.169,0,0,1-.14,1.4h-1.05a5.89,5.89,0,0,1,.14,1.4,6.169,6.169,0,0,1-.14,1.4,5.89,5.89,0,0,1,.14,1.4,6.169,6.169,0,0,1-.14,1.4h-2.1a6.169,6.169,0,0,1-.14-1.4,5.89,5.89,0,0,1,.14-1.4,6.169,6.169,0,0,1-.14-1.4,5.89,5.89,0,0,1,.14-1.4H8.036a6.169,6.169,0,0,1-.14-1.4,5.89,5.89,0,0,1,.14-1.4h1.05a6.169,6.169,0,0,1-.14-1.4,5.89,5.89,0,0,1,.14-1.4,6.169,6.169,0,0,1-.14-1.4,5.89,5.89,0,0,1,.14-1.4h2.1a5.89,5.89,0,0,1,.14,1.4,6.169,6.169,0,0,1-.14,1.4,5.89,5.89,0,0,1,.14,1.4,6.169,6.169,0,0,1-.14,1.4Zm-4.2-2.8a5.89,5.89,0,0,1,.14,1.4,6.169,6.169,0,0,1-.14,1.4h-2.8a6.169,6.169,0,0,1-.14-1.4,5.89,5.89,0,0,1,.14-1.4Zm7.14,1.4a6.169,6.169,0,0,1-.14,1.4h-2.8a6.169,6.169,0,0,1-.14-1.4,5.89,5.89,0,0,1,.14-1.4h2.8A5.89,5.89,0,0,1,15.176-39.48ZM5.1-33.88a5.89,5.89,0,0,1,.14-1.4h2.8a5.89,5.89,0,0,1,.14,1.4,6.169,6.169,0,0,1-.14,1.4h-2.8A6.169,6.169,0,0,1,5.1-33.88Zm9.94-1.4a5.89,5.89,0,0,1,.14,1.4,6.169,6.169,0,0,1-.14,1.4h-2.8a6.169,6.169,0,0,1-.14-1.4,5.89,5.89,0,0,1,.14-1.4Z" transform="translate(-5.096 43.68)"/>
    </g>
    <g id="asterísco-p-24" data-name="asterísco-p" transform="translate(-9978 -19910)">
      <path id="Caminho_9414-24" data-name="Caminho 9414" d="M12.236-38.08a5.89,5.89,0,0,1,.14,1.4,6.169,6.169,0,0,1-.14,1.4h-1.05a5.89,5.89,0,0,1,.14,1.4,6.169,6.169,0,0,1-.14,1.4,5.89,5.89,0,0,1,.14,1.4,6.169,6.169,0,0,1-.14,1.4h-2.1a6.169,6.169,0,0,1-.14-1.4,5.89,5.89,0,0,1,.14-1.4,6.169,6.169,0,0,1-.14-1.4,5.89,5.89,0,0,1,.14-1.4H8.036a6.169,6.169,0,0,1-.14-1.4,5.89,5.89,0,0,1,.14-1.4h1.05a6.169,6.169,0,0,1-.14-1.4,5.89,5.89,0,0,1,.14-1.4,6.169,6.169,0,0,1-.14-1.4,5.89,5.89,0,0,1,.14-1.4h2.1a5.89,5.89,0,0,1,.14,1.4,6.169,6.169,0,0,1-.14,1.4,5.89,5.89,0,0,1,.14,1.4,6.169,6.169,0,0,1-.14,1.4Zm-4.2-2.8a5.89,5.89,0,0,1,.14,1.4,6.169,6.169,0,0,1-.14,1.4h-2.8a6.169,6.169,0,0,1-.14-1.4,5.89,5.89,0,0,1,.14-1.4Zm7.14,1.4a6.169,6.169,0,0,1-.14,1.4h-2.8a6.169,6.169,0,0,1-.14-1.4,5.89,5.89,0,0,1,.14-1.4h2.8A5.89,5.89,0,0,1,15.176-39.48ZM5.1-33.88a5.89,5.89,0,0,1,.14-1.4h2.8a5.89,5.89,0,0,1,.14,1.4,6.169,6.169,0,0,1-.14,1.4h-2.8A6.169,6.169,0,0,1,5.1-33.88Zm9.94-1.4a5.89,5.89,0,0,1,.14,1.4,6.169,6.169,0,0,1-.14,1.4h-2.8a6.169,6.169,0,0,1-.14-1.4,5.89,5.89,0,0,1,.14-1.4Z" transform="translate(-5.096 43.68)"/>
    </g>
    <g id="asterísco-p-25" data-name="asterísco-p" transform="translate(-9955 -19910)">
      <path id="Caminho_9414-25" data-name="Caminho 9414" d="M12.236-38.08a5.89,5.89,0,0,1,.14,1.4,6.169,6.169,0,0,1-.14,1.4h-1.05a5.89,5.89,0,0,1,.14,1.4,6.169,6.169,0,0,1-.14,1.4,5.89,5.89,0,0,1,.14,1.4,6.169,6.169,0,0,1-.14,1.4h-2.1a6.169,6.169,0,0,1-.14-1.4,5.89,5.89,0,0,1,.14-1.4,6.169,6.169,0,0,1-.14-1.4,5.89,5.89,0,0,1,.14-1.4H8.036a6.169,6.169,0,0,1-.14-1.4,5.89,5.89,0,0,1,.14-1.4h1.05a6.169,6.169,0,0,1-.14-1.4,5.89,5.89,0,0,1,.14-1.4,6.169,6.169,0,0,1-.14-1.4,5.89,5.89,0,0,1,.14-1.4h2.1a5.89,5.89,0,0,1,.14,1.4,6.169,6.169,0,0,1-.14,1.4,5.89,5.89,0,0,1,.14,1.4,6.169,6.169,0,0,1-.14,1.4Zm-4.2-2.8a5.89,5.89,0,0,1,.14,1.4,6.169,6.169,0,0,1-.14,1.4h-2.8a6.169,6.169,0,0,1-.14-1.4,5.89,5.89,0,0,1,.14-1.4Zm7.14,1.4a6.169,6.169,0,0,1-.14,1.4h-2.8a6.169,6.169,0,0,1-.14-1.4,5.89,5.89,0,0,1,.14-1.4h2.8A5.89,5.89,0,0,1,15.176-39.48ZM5.1-33.88a5.89,5.89,0,0,1,.14-1.4h2.8a5.89,5.89,0,0,1,.14,1.4,6.169,6.169,0,0,1-.14,1.4h-2.8A6.169,6.169,0,0,1,5.1-33.88Zm9.94-1.4a5.89,5.89,0,0,1,.14,1.4,6.169,6.169,0,0,1-.14,1.4h-2.8a6.169,6.169,0,0,1-.14-1.4,5.89,5.89,0,0,1,.14-1.4Z" transform="translate(-5.096 43.68)"/>
    </g>
    <g id="asterísco-p-26" data-name="asterísco-p" transform="translate(-9932 -19910)">
      <path id="Caminho_9414-26" data-name="Caminho 9414" d="M12.236-38.08a5.89,5.89,0,0,1,.14,1.4,6.169,6.169,0,0,1-.14,1.4h-1.05a5.89,5.89,0,0,1,.14,1.4,6.169,6.169,0,0,1-.14,1.4,5.89,5.89,0,0,1,.14,1.4,6.169,6.169,0,0,1-.14,1.4h-2.1a6.169,6.169,0,0,1-.14-1.4,5.89,5.89,0,0,1,.14-1.4,6.169,6.169,0,0,1-.14-1.4,5.89,5.89,0,0,1,.14-1.4H8.036a6.169,6.169,0,0,1-.14-1.4,5.89,5.89,0,0,1,.14-1.4h1.05a6.169,6.169,0,0,1-.14-1.4,5.89,5.89,0,0,1,.14-1.4,6.169,6.169,0,0,1-.14-1.4,5.89,5.89,0,0,1,.14-1.4h2.1a5.89,5.89,0,0,1,.14,1.4,6.169,6.169,0,0,1-.14,1.4,5.89,5.89,0,0,1,.14,1.4,6.169,6.169,0,0,1-.14,1.4Zm-4.2-2.8a5.89,5.89,0,0,1,.14,1.4,6.169,6.169,0,0,1-.14,1.4h-2.8a6.169,6.169,0,0,1-.14-1.4,5.89,5.89,0,0,1,.14-1.4Zm7.14,1.4a6.169,6.169,0,0,1-.14,1.4h-2.8a6.169,6.169,0,0,1-.14-1.4,5.89,5.89,0,0,1,.14-1.4h2.8A5.89,5.89,0,0,1,15.176-39.48ZM5.1-33.88a5.89,5.89,0,0,1,.14-1.4h2.8a5.89,5.89,0,0,1,.14,1.4,6.169,6.169,0,0,1-.14,1.4h-2.8A6.169,6.169,0,0,1,5.1-33.88Zm9.94-1.4a5.89,5.89,0,0,1,.14,1.4,6.169,6.169,0,0,1-.14,1.4h-2.8a6.169,6.169,0,0,1-.14-1.4,5.89,5.89,0,0,1,.14-1.4Z" transform="translate(-5.096 43.68)"/>
    </g>
    <g id="asterísco-p-27" data-name="asterísco-p" transform="translate(-9909 -19910)">
      <path id="Caminho_9414-27" data-name="Caminho 9414" d="M12.236-38.08a5.89,5.89,0,0,1,.14,1.4,6.169,6.169,0,0,1-.14,1.4h-1.05a5.89,5.89,0,0,1,.14,1.4,6.169,6.169,0,0,1-.14,1.4,5.89,5.89,0,0,1,.14,1.4,6.169,6.169,0,0,1-.14,1.4h-2.1a6.169,6.169,0,0,1-.14-1.4,5.89,5.89,0,0,1,.14-1.4,6.169,6.169,0,0,1-.14-1.4,5.89,5.89,0,0,1,.14-1.4H8.036a6.169,6.169,0,0,1-.14-1.4,5.89,5.89,0,0,1,.14-1.4h1.05a6.169,6.169,0,0,1-.14-1.4,5.89,5.89,0,0,1,.14-1.4,6.169,6.169,0,0,1-.14-1.4,5.89,5.89,0,0,1,.14-1.4h2.1a5.89,5.89,0,0,1,.14,1.4,6.169,6.169,0,0,1-.14,1.4,5.89,5.89,0,0,1,.14,1.4,6.169,6.169,0,0,1-.14,1.4Zm-4.2-2.8a5.89,5.89,0,0,1,.14,1.4,6.169,6.169,0,0,1-.14,1.4h-2.8a6.169,6.169,0,0,1-.14-1.4,5.89,5.89,0,0,1,.14-1.4Zm7.14,1.4a6.169,6.169,0,0,1-.14,1.4h-2.8a6.169,6.169,0,0,1-.14-1.4,5.89,5.89,0,0,1,.14-1.4h2.8A5.89,5.89,0,0,1,15.176-39.48ZM5.1-33.88a5.89,5.89,0,0,1,.14-1.4h2.8a5.89,5.89,0,0,1,.14,1.4,6.169,6.169,0,0,1-.14,1.4h-2.8A6.169,6.169,0,0,1,5.1-33.88Zm9.94-1.4a5.89,5.89,0,0,1,.14,1.4,6.169,6.169,0,0,1-.14,1.4h-2.8a6.169,6.169,0,0,1-.14-1.4,5.89,5.89,0,0,1,.14-1.4Z" transform="translate(-5.096 43.68)"/>
    </g>
    <g id="asterísco-p-28" data-name="asterísco-p" transform="translate(-9886 -19910)">
      <path id="Caminho_9414-28" data-name="Caminho 9414" d="M12.236-38.08a5.89,5.89,0,0,1,.14,1.4,6.169,6.169,0,0,1-.14,1.4h-1.05a5.89,5.89,0,0,1,.14,1.4,6.169,6.169,0,0,1-.14,1.4,5.89,5.89,0,0,1,.14,1.4,6.169,6.169,0,0,1-.14,1.4h-2.1a6.169,6.169,0,0,1-.14-1.4,5.89,5.89,0,0,1,.14-1.4,6.169,6.169,0,0,1-.14-1.4,5.89,5.89,0,0,1,.14-1.4H8.036a6.169,6.169,0,0,1-.14-1.4,5.89,5.89,0,0,1,.14-1.4h1.05a6.169,6.169,0,0,1-.14-1.4,5.89,5.89,0,0,1,.14-1.4,6.169,6.169,0,0,1-.14-1.4,5.89,5.89,0,0,1,.14-1.4h2.1a5.89,5.89,0,0,1,.14,1.4,6.169,6.169,0,0,1-.14,1.4,5.89,5.89,0,0,1,.14,1.4,6.169,6.169,0,0,1-.14,1.4Zm-4.2-2.8a5.89,5.89,0,0,1,.14,1.4,6.169,6.169,0,0,1-.14,1.4h-2.8a6.169,6.169,0,0,1-.14-1.4,5.89,5.89,0,0,1,.14-1.4Zm7.14,1.4a6.169,6.169,0,0,1-.14,1.4h-2.8a6.169,6.169,0,0,1-.14-1.4,5.89,5.89,0,0,1,.14-1.4h2.8A5.89,5.89,0,0,1,15.176-39.48ZM5.1-33.88a5.89,5.89,0,0,1,.14-1.4h2.8a5.89,5.89,0,0,1,.14,1.4,6.169,6.169,0,0,1-.14,1.4h-2.8A6.169,6.169,0,0,1,5.1-33.88Zm9.94-1.4a5.89,5.89,0,0,1,.14,1.4,6.169,6.169,0,0,1-.14,1.4h-2.8a6.169,6.169,0,0,1-.14-1.4,5.89,5.89,0,0,1,.14-1.4Z" transform="translate(-5.096 43.68)"/>
    </g>
    <g id="asterísco-p-29" data-name="asterísco-p" transform="translate(-9863 -19910)">
      <path id="Caminho_9414-29" data-name="Caminho 9414" d="M12.236-38.08a5.89,5.89,0,0,1,.14,1.4,6.169,6.169,0,0,1-.14,1.4h-1.05a5.89,5.89,0,0,1,.14,1.4,6.169,6.169,0,0,1-.14,1.4,5.89,5.89,0,0,1,.14,1.4,6.169,6.169,0,0,1-.14,1.4h-2.1a6.169,6.169,0,0,1-.14-1.4,5.89,5.89,0,0,1,.14-1.4,6.169,6.169,0,0,1-.14-1.4,5.89,5.89,0,0,1,.14-1.4H8.036a6.169,6.169,0,0,1-.14-1.4,5.89,5.89,0,0,1,.14-1.4h1.05a6.169,6.169,0,0,1-.14-1.4,5.89,5.89,0,0,1,.14-1.4,6.169,6.169,0,0,1-.14-1.4,5.89,5.89,0,0,1,.14-1.4h2.1a5.89,5.89,0,0,1,.14,1.4,6.169,6.169,0,0,1-.14,1.4,5.89,5.89,0,0,1,.14,1.4,6.169,6.169,0,0,1-.14,1.4Zm-4.2-2.8a5.89,5.89,0,0,1,.14,1.4,6.169,6.169,0,0,1-.14,1.4h-2.8a6.169,6.169,0,0,1-.14-1.4,5.89,5.89,0,0,1,.14-1.4Zm7.14,1.4a6.169,6.169,0,0,1-.14,1.4h-2.8a6.169,6.169,0,0,1-.14-1.4,5.89,5.89,0,0,1,.14-1.4h2.8A5.89,5.89,0,0,1,15.176-39.48ZM5.1-33.88a5.89,5.89,0,0,1,.14-1.4h2.8a5.89,5.89,0,0,1,.14,1.4,6.169,6.169,0,0,1-.14,1.4h-2.8A6.169,6.169,0,0,1,5.1-33.88Zm9.94-1.4a5.89,5.89,0,0,1,.14,1.4,6.169,6.169,0,0,1-.14,1.4h-2.8a6.169,6.169,0,0,1-.14-1.4,5.89,5.89,0,0,1,.14-1.4Z" transform="translate(-5.096 43.68)"/>
    </g>
    <g id="asterísco-p-30" data-name="asterísco-p" transform="translate(-9840 -19910)">
      <path id="Caminho_9414-30" data-name="Caminho 9414" d="M12.236-38.08a5.89,5.89,0,0,1,.14,1.4,6.169,6.169,0,0,1-.14,1.4h-1.05a5.89,5.89,0,0,1,.14,1.4,6.169,6.169,0,0,1-.14,1.4,5.89,5.89,0,0,1,.14,1.4,6.169,6.169,0,0,1-.14,1.4h-2.1a6.169,6.169,0,0,1-.14-1.4,5.89,5.89,0,0,1,.14-1.4,6.169,6.169,0,0,1-.14-1.4,5.89,5.89,0,0,1,.14-1.4H8.036a6.169,6.169,0,0,1-.14-1.4,5.89,5.89,0,0,1,.14-1.4h1.05a6.169,6.169,0,0,1-.14-1.4,5.89,5.89,0,0,1,.14-1.4,6.169,6.169,0,0,1-.14-1.4,5.89,5.89,0,0,1,.14-1.4h2.1a5.89,5.89,0,0,1,.14,1.4,6.169,6.169,0,0,1-.14,1.4,5.89,5.89,0,0,1,.14,1.4,6.169,6.169,0,0,1-.14,1.4Zm-4.2-2.8a5.89,5.89,0,0,1,.14,1.4,6.169,6.169,0,0,1-.14,1.4h-2.8a6.169,6.169,0,0,1-.14-1.4,5.89,5.89,0,0,1,.14-1.4Zm7.14,1.4a6.169,6.169,0,0,1-.14,1.4h-2.8a6.169,6.169,0,0,1-.14-1.4,5.89,5.89,0,0,1,.14-1.4h2.8A5.89,5.89,0,0,1,15.176-39.48ZM5.1-33.88a5.89,5.89,0,0,1,.14-1.4h2.8a5.89,5.89,0,0,1,.14,1.4,6.169,6.169,0,0,1-.14,1.4h-2.8A6.169,6.169,0,0,1,5.1-33.88Zm9.94-1.4a5.89,5.89,0,0,1,.14,1.4,6.169,6.169,0,0,1-.14,1.4h-2.8a6.169,6.169,0,0,1-.14-1.4,5.89,5.89,0,0,1,.14-1.4Z" transform="translate(-5.096 43.68)"/>
    </g>
    <g id="asterísco-p-31" data-name="asterísco-p" transform="translate(-9817 -19910)">
      <path id="Caminho_9414-31" data-name="Caminho 9414" d="M12.236-38.08a5.89,5.89,0,0,1,.14,1.4,6.169,6.169,0,0,1-.14,1.4h-1.05a5.89,5.89,0,0,1,.14,1.4,6.169,6.169,0,0,1-.14,1.4,5.89,5.89,0,0,1,.14,1.4,6.169,6.169,0,0,1-.14,1.4h-2.1a6.169,6.169,0,0,1-.14-1.4,5.89,5.89,0,0,1,.14-1.4,6.169,6.169,0,0,1-.14-1.4,5.89,5.89,0,0,1,.14-1.4H8.036a6.169,6.169,0,0,1-.14-1.4,5.89,5.89,0,0,1,.14-1.4h1.05a6.169,6.169,0,0,1-.14-1.4,5.89,5.89,0,0,1,.14-1.4,6.169,6.169,0,0,1-.14-1.4,5.89,5.89,0,0,1,.14-1.4h2.1a5.89,5.89,0,0,1,.14,1.4,6.169,6.169,0,0,1-.14,1.4,5.89,5.89,0,0,1,.14,1.4,6.169,6.169,0,0,1-.14,1.4Zm-4.2-2.8a5.89,5.89,0,0,1,.14,1.4,6.169,6.169,0,0,1-.14,1.4h-2.8a6.169,6.169,0,0,1-.14-1.4,5.89,5.89,0,0,1,.14-1.4Zm7.14,1.4a6.169,6.169,0,0,1-.14,1.4h-2.8a6.169,6.169,0,0,1-.14-1.4,5.89,5.89,0,0,1,.14-1.4h2.8A5.89,5.89,0,0,1,15.176-39.48ZM5.1-33.88a5.89,5.89,0,0,1,.14-1.4h2.8a5.89,5.89,0,0,1,.14,1.4,6.169,6.169,0,0,1-.14,1.4h-2.8A6.169,6.169,0,0,1,5.1-33.88Zm9.94-1.4a5.89,5.89,0,0,1,.14,1.4,6.169,6.169,0,0,1-.14,1.4h-2.8a6.169,6.169,0,0,1-.14-1.4,5.89,5.89,0,0,1,.14-1.4Z" transform="translate(-5.096 43.68)"/>
    </g>
    <g id="asterísco-p-32" data-name="asterísco-p" transform="translate(-9794 -19910)">
      <path id="Caminho_9414-32" data-name="Caminho 9414" d="M12.236-38.08a5.89,5.89,0,0,1,.14,1.4,6.169,6.169,0,0,1-.14,1.4h-1.05a5.89,5.89,0,0,1,.14,1.4,6.169,6.169,0,0,1-.14,1.4,5.89,5.89,0,0,1,.14,1.4,6.169,6.169,0,0,1-.14,1.4h-2.1a6.169,6.169,0,0,1-.14-1.4,5.89,5.89,0,0,1,.14-1.4,6.169,6.169,0,0,1-.14-1.4,5.89,5.89,0,0,1,.14-1.4H8.036a6.169,6.169,0,0,1-.14-1.4,5.89,5.89,0,0,1,.14-1.4h1.05a6.169,6.169,0,0,1-.14-1.4,5.89,5.89,0,0,1,.14-1.4,6.169,6.169,0,0,1-.14-1.4,5.89,5.89,0,0,1,.14-1.4h2.1a5.89,5.89,0,0,1,.14,1.4,6.169,6.169,0,0,1-.14,1.4,5.89,5.89,0,0,1,.14,1.4,6.169,6.169,0,0,1-.14,1.4Zm-4.2-2.8a5.89,5.89,0,0,1,.14,1.4,6.169,6.169,0,0,1-.14,1.4h-2.8a6.169,6.169,0,0,1-.14-1.4,5.89,5.89,0,0,1,.14-1.4Zm7.14,1.4a6.169,6.169,0,0,1-.14,1.4h-2.8a6.169,6.169,0,0,1-.14-1.4,5.89,5.89,0,0,1,.14-1.4h2.8A5.89,5.89,0,0,1,15.176-39.48ZM5.1-33.88a5.89,5.89,0,0,1,.14-1.4h2.8a5.89,5.89,0,0,1,.14,1.4,6.169,6.169,0,0,1-.14,1.4h-2.8A6.169,6.169,0,0,1,5.1-33.88Zm9.94-1.4a5.89,5.89,0,0,1,.14,1.4,6.169,6.169,0,0,1-.14,1.4h-2.8a6.169,6.169,0,0,1-.14-1.4,5.89,5.89,0,0,1,.14-1.4Z" transform="translate(-5.096 43.68)"/>
    </g>
    <g id="asterísco-p-33" data-name="asterísco-p" transform="translate(-9771 -19910)">
      <path id="Caminho_9414-33" data-name="Caminho 9414" d="M12.236-38.08a5.89,5.89,0,0,1,.14,1.4,6.169,6.169,0,0,1-.14,1.4h-1.05a5.89,5.89,0,0,1,.14,1.4,6.169,6.169,0,0,1-.14,1.4,5.89,5.89,0,0,1,.14,1.4,6.169,6.169,0,0,1-.14,1.4h-2.1a6.169,6.169,0,0,1-.14-1.4,5.89,5.89,0,0,1,.14-1.4,6.169,6.169,0,0,1-.14-1.4,5.89,5.89,0,0,1,.14-1.4H8.036a6.169,6.169,0,0,1-.14-1.4,5.89,5.89,0,0,1,.14-1.4h1.05a6.169,6.169,0,0,1-.14-1.4,5.89,5.89,0,0,1,.14-1.4,6.169,6.169,0,0,1-.14-1.4,5.89,5.89,0,0,1,.14-1.4h2.1a5.89,5.89,0,0,1,.14,1.4,6.169,6.169,0,0,1-.14,1.4,5.89,5.89,0,0,1,.14,1.4,6.169,6.169,0,0,1-.14,1.4Zm-4.2-2.8a5.89,5.89,0,0,1,.14,1.4,6.169,6.169,0,0,1-.14,1.4h-2.8a6.169,6.169,0,0,1-.14-1.4,5.89,5.89,0,0,1,.14-1.4Zm7.14,1.4a6.169,6.169,0,0,1-.14,1.4h-2.8a6.169,6.169,0,0,1-.14-1.4,5.89,5.89,0,0,1,.14-1.4h2.8A5.89,5.89,0,0,1,15.176-39.48ZM5.1-33.88a5.89,5.89,0,0,1,.14-1.4h2.8a5.89,5.89,0,0,1,.14,1.4,6.169,6.169,0,0,1-.14,1.4h-2.8A6.169,6.169,0,0,1,5.1-33.88Zm9.94-1.4a5.89,5.89,0,0,1,.14,1.4,6.169,6.169,0,0,1-.14,1.4h-2.8a6.169,6.169,0,0,1-.14-1.4,5.89,5.89,0,0,1,.14-1.4Z" transform="translate(-5.096 43.68)"/>
    </g>
    <g id="asterísco-p-34" data-name="asterísco-p" transform="translate(-9748 -19910)">
      <path id="Caminho_9414-34" data-name="Caminho 9414" d="M12.236-38.08a5.89,5.89,0,0,1,.14,1.4,6.169,6.169,0,0,1-.14,1.4h-1.05a5.89,5.89,0,0,1,.14,1.4,6.169,6.169,0,0,1-.14,1.4,5.89,5.89,0,0,1,.14,1.4,6.169,6.169,0,0,1-.14,1.4h-2.1a6.169,6.169,0,0,1-.14-1.4,5.89,5.89,0,0,1,.14-1.4,6.169,6.169,0,0,1-.14-1.4,5.89,5.89,0,0,1,.14-1.4H8.036a6.169,6.169,0,0,1-.14-1.4,5.89,5.89,0,0,1,.14-1.4h1.05a6.169,6.169,0,0,1-.14-1.4,5.89,5.89,0,0,1,.14-1.4,6.169,6.169,0,0,1-.14-1.4,5.89,5.89,0,0,1,.14-1.4h2.1a5.89,5.89,0,0,1,.14,1.4,6.169,6.169,0,0,1-.14,1.4,5.89,5.89,0,0,1,.14,1.4,6.169,6.169,0,0,1-.14,1.4Zm-4.2-2.8a5.89,5.89,0,0,1,.14,1.4,6.169,6.169,0,0,1-.14,1.4h-2.8a6.169,6.169,0,0,1-.14-1.4,5.89,5.89,0,0,1,.14-1.4Zm7.14,1.4a6.169,6.169,0,0,1-.14,1.4h-2.8a6.169,6.169,0,0,1-.14-1.4,5.89,5.89,0,0,1,.14-1.4h2.8A5.89,5.89,0,0,1,15.176-39.48ZM5.1-33.88a5.89,5.89,0,0,1,.14-1.4h2.8a5.89,5.89,0,0,1,.14,1.4,6.169,6.169,0,0,1-.14,1.4h-2.8A6.169,6.169,0,0,1,5.1-33.88Zm9.94-1.4a5.89,5.89,0,0,1,.14,1.4,6.169,6.169,0,0,1-.14,1.4h-2.8a6.169,6.169,0,0,1-.14-1.4,5.89,5.89,0,0,1,.14-1.4Z" transform="translate(-5.096 43.68)"/>
    </g>
    <g id="asterísco-p-35" data-name="asterísco-p" transform="translate(-9725 -19910)">
      <path id="Caminho_9414-35" data-name="Caminho 9414" d="M12.236-38.08a5.89,5.89,0,0,1,.14,1.4,6.169,6.169,0,0,1-.14,1.4h-1.05a5.89,5.89,0,0,1,.14,1.4,6.169,6.169,0,0,1-.14,1.4,5.89,5.89,0,0,1,.14,1.4,6.169,6.169,0,0,1-.14,1.4h-2.1a6.169,6.169,0,0,1-.14-1.4,5.89,5.89,0,0,1,.14-1.4,6.169,6.169,0,0,1-.14-1.4,5.89,5.89,0,0,1,.14-1.4H8.036a6.169,6.169,0,0,1-.14-1.4,5.89,5.89,0,0,1,.14-1.4h1.05a6.169,6.169,0,0,1-.14-1.4,5.89,5.89,0,0,1,.14-1.4,6.169,6.169,0,0,1-.14-1.4,5.89,5.89,0,0,1,.14-1.4h2.1a5.89,5.89,0,0,1,.14,1.4,6.169,6.169,0,0,1-.14,1.4,5.89,5.89,0,0,1,.14,1.4,6.169,6.169,0,0,1-.14,1.4Zm-4.2-2.8a5.89,5.89,0,0,1,.14,1.4,6.169,6.169,0,0,1-.14,1.4h-2.8a6.169,6.169,0,0,1-.14-1.4,5.89,5.89,0,0,1,.14-1.4Zm7.14,1.4a6.169,6.169,0,0,1-.14,1.4h-2.8a6.169,6.169,0,0,1-.14-1.4,5.89,5.89,0,0,1,.14-1.4h2.8A5.89,5.89,0,0,1,15.176-39.48ZM5.1-33.88a5.89,5.89,0,0,1,.14-1.4h2.8a5.89,5.89,0,0,1,.14,1.4,6.169,6.169,0,0,1-.14,1.4h-2.8A6.169,6.169,0,0,1,5.1-33.88Zm9.94-1.4a5.89,5.89,0,0,1,.14,1.4,6.169,6.169,0,0,1-.14,1.4h-2.8a6.169,6.169,0,0,1-.14-1.4,5.89,5.89,0,0,1,.14-1.4Z" transform="translate(-5.096 43.68)"/>
    </g>
    <g id="asterísco-p-36" data-name="asterísco-p" transform="translate(-9702 -19910)">
      <path id="Caminho_9414-36" data-name="Caminho 9414" d="M12.236-38.08a5.89,5.89,0,0,1,.14,1.4,6.169,6.169,0,0,1-.14,1.4h-1.05a5.89,5.89,0,0,1,.14,1.4,6.169,6.169,0,0,1-.14,1.4,5.89,5.89,0,0,1,.14,1.4,6.169,6.169,0,0,1-.14,1.4h-2.1a6.169,6.169,0,0,1-.14-1.4,5.89,5.89,0,0,1,.14-1.4,6.169,6.169,0,0,1-.14-1.4,5.89,5.89,0,0,1,.14-1.4H8.036a6.169,6.169,0,0,1-.14-1.4,5.89,5.89,0,0,1,.14-1.4h1.05a6.169,6.169,0,0,1-.14-1.4,5.89,5.89,0,0,1,.14-1.4,6.169,6.169,0,0,1-.14-1.4,5.89,5.89,0,0,1,.14-1.4h2.1a5.89,5.89,0,0,1,.14,1.4,6.169,6.169,0,0,1-.14,1.4,5.89,5.89,0,0,1,.14,1.4,6.169,6.169,0,0,1-.14,1.4Zm-4.2-2.8a5.89,5.89,0,0,1,.14,1.4,6.169,6.169,0,0,1-.14,1.4h-2.8a6.169,6.169,0,0,1-.14-1.4,5.89,5.89,0,0,1,.14-1.4Zm7.14,1.4a6.169,6.169,0,0,1-.14,1.4h-2.8a6.169,6.169,0,0,1-.14-1.4,5.89,5.89,0,0,1,.14-1.4h2.8A5.89,5.89,0,0,1,15.176-39.48ZM5.1-33.88a5.89,5.89,0,0,1,.14-1.4h2.8a5.89,5.89,0,0,1,.14,1.4,6.169,6.169,0,0,1-.14,1.4h-2.8A6.169,6.169,0,0,1,5.1-33.88Zm9.94-1.4a5.89,5.89,0,0,1,.14,1.4,6.169,6.169,0,0,1-.14,1.4h-2.8a6.169,6.169,0,0,1-.14-1.4,5.89,5.89,0,0,1,.14-1.4Z" transform="translate(-5.096 43.68)"/>
    </g>
    <g id="asterísco-p-37" data-name="asterísco-p" transform="translate(-9679 -19910)">
      <path id="Caminho_9414-37" data-name="Caminho 9414" d="M12.236-38.08a5.89,5.89,0,0,1,.14,1.4,6.169,6.169,0,0,1-.14,1.4h-1.05a5.89,5.89,0,0,1,.14,1.4,6.169,6.169,0,0,1-.14,1.4,5.89,5.89,0,0,1,.14,1.4,6.169,6.169,0,0,1-.14,1.4h-2.1a6.169,6.169,0,0,1-.14-1.4,5.89,5.89,0,0,1,.14-1.4,6.169,6.169,0,0,1-.14-1.4,5.89,5.89,0,0,1,.14-1.4H8.036a6.169,6.169,0,0,1-.14-1.4,5.89,5.89,0,0,1,.14-1.4h1.05a6.169,6.169,0,0,1-.14-1.4,5.89,5.89,0,0,1,.14-1.4,6.169,6.169,0,0,1-.14-1.4,5.89,5.89,0,0,1,.14-1.4h2.1a5.89,5.89,0,0,1,.14,1.4,6.169,6.169,0,0,1-.14,1.4,5.89,5.89,0,0,1,.14,1.4,6.169,6.169,0,0,1-.14,1.4Zm-4.2-2.8a5.89,5.89,0,0,1,.14,1.4,6.169,6.169,0,0,1-.14,1.4h-2.8a6.169,6.169,0,0,1-.14-1.4,5.89,5.89,0,0,1,.14-1.4Zm7.14,1.4a6.169,6.169,0,0,1-.14,1.4h-2.8a6.169,6.169,0,0,1-.14-1.4,5.89,5.89,0,0,1,.14-1.4h2.8A5.89,5.89,0,0,1,15.176-39.48ZM5.1-33.88a5.89,5.89,0,0,1,.14-1.4h2.8a5.89,5.89,0,0,1,.14,1.4,6.169,6.169,0,0,1-.14,1.4h-2.8A6.169,6.169,0,0,1,5.1-33.88Zm9.94-1.4a5.89,5.89,0,0,1,.14,1.4,6.169,6.169,0,0,1-.14,1.4h-2.8a6.169,6.169,0,0,1-.14-1.4,5.89,5.89,0,0,1,.14-1.4Z" transform="translate(-5.096 43.68)"/>
    </g>
    <g id="asterísco-p-38" data-name="asterísco-p" transform="translate(-9656 -19910)">
      <path id="Caminho_9414-38" data-name="Caminho 9414" d="M12.236-38.08a5.89,5.89,0,0,1,.14,1.4,6.169,6.169,0,0,1-.14,1.4h-1.05a5.89,5.89,0,0,1,.14,1.4,6.169,6.169,0,0,1-.14,1.4,5.89,5.89,0,0,1,.14,1.4,6.169,6.169,0,0,1-.14,1.4h-2.1a6.169,6.169,0,0,1-.14-1.4,5.89,5.89,0,0,1,.14-1.4,6.169,6.169,0,0,1-.14-1.4,5.89,5.89,0,0,1,.14-1.4H8.036a6.169,6.169,0,0,1-.14-1.4,5.89,5.89,0,0,1,.14-1.4h1.05a6.169,6.169,0,0,1-.14-1.4,5.89,5.89,0,0,1,.14-1.4,6.169,6.169,0,0,1-.14-1.4,5.89,5.89,0,0,1,.14-1.4h2.1a5.89,5.89,0,0,1,.14,1.4,6.169,6.169,0,0,1-.14,1.4,5.89,5.89,0,0,1,.14,1.4,6.169,6.169,0,0,1-.14,1.4Zm-4.2-2.8a5.89,5.89,0,0,1,.14,1.4,6.169,6.169,0,0,1-.14,1.4h-2.8a6.169,6.169,0,0,1-.14-1.4,5.89,5.89,0,0,1,.14-1.4Zm7.14,1.4a6.169,6.169,0,0,1-.14,1.4h-2.8a6.169,6.169,0,0,1-.14-1.4,5.89,5.89,0,0,1,.14-1.4h2.8A5.89,5.89,0,0,1,15.176-39.48ZM5.1-33.88a5.89,5.89,0,0,1,.14-1.4h2.8a5.89,5.89,0,0,1,.14,1.4,6.169,6.169,0,0,1-.14,1.4h-2.8A6.169,6.169,0,0,1,5.1-33.88Zm9.94-1.4a5.89,5.89,0,0,1,.14,1.4,6.169,6.169,0,0,1-.14,1.4h-2.8a6.169,6.169,0,0,1-.14-1.4,5.89,5.89,0,0,1,.14-1.4Z" transform="translate(-5.096 43.68)"/>
    </g>
    <g id="asterísco-p-39" data-name="asterísco-p" transform="translate(-9633 -19910)">
      <path id="Caminho_9414-39" data-name="Caminho 9414" d="M12.236-38.08a5.89,5.89,0,0,1,.14,1.4,6.169,6.169,0,0,1-.14,1.4h-1.05a5.89,5.89,0,0,1,.14,1.4,6.169,6.169,0,0,1-.14,1.4,5.89,5.89,0,0,1,.14,1.4,6.169,6.169,0,0,1-.14,1.4h-2.1a6.169,6.169,0,0,1-.14-1.4,5.89,5.89,0,0,1,.14-1.4,6.169,6.169,0,0,1-.14-1.4,5.89,5.89,0,0,1,.14-1.4H8.036a6.169,6.169,0,0,1-.14-1.4,5.89,5.89,0,0,1,.14-1.4h1.05a6.169,6.169,0,0,1-.14-1.4,5.89,5.89,0,0,1,.14-1.4,6.169,6.169,0,0,1-.14-1.4,5.89,5.89,0,0,1,.14-1.4h2.1a5.89,5.89,0,0,1,.14,1.4,6.169,6.169,0,0,1-.14,1.4,5.89,5.89,0,0,1,.14,1.4,6.169,6.169,0,0,1-.14,1.4Zm-4.2-2.8a5.89,5.89,0,0,1,.14,1.4,6.169,6.169,0,0,1-.14,1.4h-2.8a6.169,6.169,0,0,1-.14-1.4,5.89,5.89,0,0,1,.14-1.4Zm7.14,1.4a6.169,6.169,0,0,1-.14,1.4h-2.8a6.169,6.169,0,0,1-.14-1.4,5.89,5.89,0,0,1,.14-1.4h2.8A5.89,5.89,0,0,1,15.176-39.48ZM5.1-33.88a5.89,5.89,0,0,1,.14-1.4h2.8a5.89,5.89,0,0,1,.14,1.4,6.169,6.169,0,0,1-.14,1.4h-2.8A6.169,6.169,0,0,1,5.1-33.88Zm9.94-1.4a5.89,5.89,0,0,1,.14,1.4,6.169,6.169,0,0,1-.14,1.4h-2.8a6.169,6.169,0,0,1-.14-1.4,5.89,5.89,0,0,1,.14-1.4Z" transform="translate(-5.096 43.68)"/>
    </g>
    <g id="asterísco-p-40" data-name="asterísco-p" transform="translate(-9610 -19910)">
      <path id="Caminho_9414-40" data-name="Caminho 9414" d="M12.236-38.08a5.89,5.89,0,0,1,.14,1.4,6.169,6.169,0,0,1-.14,1.4h-1.05a5.89,5.89,0,0,1,.14,1.4,6.169,6.169,0,0,1-.14,1.4,5.89,5.89,0,0,1,.14,1.4,6.169,6.169,0,0,1-.14,1.4h-2.1a6.169,6.169,0,0,1-.14-1.4,5.89,5.89,0,0,1,.14-1.4,6.169,6.169,0,0,1-.14-1.4,5.89,5.89,0,0,1,.14-1.4H8.036a6.169,6.169,0,0,1-.14-1.4,5.89,5.89,0,0,1,.14-1.4h1.05a6.169,6.169,0,0,1-.14-1.4,5.89,5.89,0,0,1,.14-1.4,6.169,6.169,0,0,1-.14-1.4,5.89,5.89,0,0,1,.14-1.4h2.1a5.89,5.89,0,0,1,.14,1.4,6.169,6.169,0,0,1-.14,1.4,5.89,5.89,0,0,1,.14,1.4,6.169,6.169,0,0,1-.14,1.4Zm-4.2-2.8a5.89,5.89,0,0,1,.14,1.4,6.169,6.169,0,0,1-.14,1.4h-2.8a6.169,6.169,0,0,1-.14-1.4,5.89,5.89,0,0,1,.14-1.4Zm7.14,1.4a6.169,6.169,0,0,1-.14,1.4h-2.8a6.169,6.169,0,0,1-.14-1.4,5.89,5.89,0,0,1,.14-1.4h2.8A5.89,5.89,0,0,1,15.176-39.48ZM5.1-33.88a5.89,5.89,0,0,1,.14-1.4h2.8a5.89,5.89,0,0,1,.14,1.4,6.169,6.169,0,0,1-.14,1.4h-2.8A6.169,6.169,0,0,1,5.1-33.88Zm9.94-1.4a5.89,5.89,0,0,1,.14,1.4,6.169,6.169,0,0,1-.14,1.4h-2.8a6.169,6.169,0,0,1-.14-1.4,5.89,5.89,0,0,1,.14-1.4Z" transform="translate(-5.096 43.68)"/>
    </g>
    <g id="asterísco-p-41" data-name="asterísco-p" transform="translate(-9587 -19910)">
      <path id="Caminho_9414-41" data-name="Caminho 9414" d="M12.236-38.08a5.89,5.89,0,0,1,.14,1.4,6.169,6.169,0,0,1-.14,1.4h-1.05a5.89,5.89,0,0,1,.14,1.4,6.169,6.169,0,0,1-.14,1.4,5.89,5.89,0,0,1,.14,1.4,6.169,6.169,0,0,1-.14,1.4h-2.1a6.169,6.169,0,0,1-.14-1.4,5.89,5.89,0,0,1,.14-1.4,6.169,6.169,0,0,1-.14-1.4,5.89,5.89,0,0,1,.14-1.4H8.036a6.169,6.169,0,0,1-.14-1.4,5.89,5.89,0,0,1,.14-1.4h1.05a6.169,6.169,0,0,1-.14-1.4,5.89,5.89,0,0,1,.14-1.4,6.169,6.169,0,0,1-.14-1.4,5.89,5.89,0,0,1,.14-1.4h2.1a5.89,5.89,0,0,1,.14,1.4,6.169,6.169,0,0,1-.14,1.4,5.89,5.89,0,0,1,.14,1.4,6.169,6.169,0,0,1-.14,1.4Zm-4.2-2.8a5.89,5.89,0,0,1,.14,1.4,6.169,6.169,0,0,1-.14,1.4h-2.8a6.169,6.169,0,0,1-.14-1.4,5.89,5.89,0,0,1,.14-1.4Zm7.14,1.4a6.169,6.169,0,0,1-.14,1.4h-2.8a6.169,6.169,0,0,1-.14-1.4,5.89,5.89,0,0,1,.14-1.4h2.8A5.89,5.89,0,0,1,15.176-39.48ZM5.1-33.88a5.89,5.89,0,0,1,.14-1.4h2.8a5.89,5.89,0,0,1,.14,1.4,6.169,6.169,0,0,1-.14,1.4h-2.8A6.169,6.169,0,0,1,5.1-33.88Zm9.94-1.4a5.89,5.89,0,0,1,.14,1.4,6.169,6.169,0,0,1-.14,1.4h-2.8a6.169,6.169,0,0,1-.14-1.4,5.89,5.89,0,0,1,.14-1.4Z" transform="translate(-5.096 43.68)"/>
    </g>
    <g id="asterísco-p-42" data-name="asterísco-p" transform="translate(-9564 -19910)">
      <path id="Caminho_9414-42" data-name="Caminho 9414" d="M12.236-38.08a5.89,5.89,0,0,1,.14,1.4,6.169,6.169,0,0,1-.14,1.4h-1.05a5.89,5.89,0,0,1,.14,1.4,6.169,6.169,0,0,1-.14,1.4,5.89,5.89,0,0,1,.14,1.4,6.169,6.169,0,0,1-.14,1.4h-2.1a6.169,6.169,0,0,1-.14-1.4,5.89,5.89,0,0,1,.14-1.4,6.169,6.169,0,0,1-.14-1.4,5.89,5.89,0,0,1,.14-1.4H8.036a6.169,6.169,0,0,1-.14-1.4,5.89,5.89,0,0,1,.14-1.4h1.05a6.169,6.169,0,0,1-.14-1.4,5.89,5.89,0,0,1,.14-1.4,6.169,6.169,0,0,1-.14-1.4,5.89,5.89,0,0,1,.14-1.4h2.1a5.89,5.89,0,0,1,.14,1.4,6.169,6.169,0,0,1-.14,1.4,5.89,5.89,0,0,1,.14,1.4,6.169,6.169,0,0,1-.14,1.4Zm-4.2-2.8a5.89,5.89,0,0,1,.14,1.4,6.169,6.169,0,0,1-.14,1.4h-2.8a6.169,6.169,0,0,1-.14-1.4,5.89,5.89,0,0,1,.14-1.4Zm7.14,1.4a6.169,6.169,0,0,1-.14,1.4h-2.8a6.169,6.169,0,0,1-.14-1.4,5.89,5.89,0,0,1,.14-1.4h2.8A5.89,5.89,0,0,1,15.176-39.48ZM5.1-33.88a5.89,5.89,0,0,1,.14-1.4h2.8a5.89,5.89,0,0,1,.14,1.4,6.169,6.169,0,0,1-.14,1.4h-2.8A6.169,6.169,0,0,1,5.1-33.88Zm9.94-1.4a5.89,5.89,0,0,1,.14,1.4,6.169,6.169,0,0,1-.14,1.4h-2.8a6.169,6.169,0,0,1-.14-1.4,5.89,5.89,0,0,1,.14-1.4Z" transform="translate(-5.096 43.68)"/>
    </g>
    <g id="asterísco-p-43" data-name="asterísco-p" transform="translate(-9541 -19910)">
      <path id="Caminho_9414-43" data-name="Caminho 9414" d="M12.236-38.08a5.89,5.89,0,0,1,.14,1.4,6.169,6.169,0,0,1-.14,1.4h-1.05a5.89,5.89,0,0,1,.14,1.4,6.169,6.169,0,0,1-.14,1.4,5.89,5.89,0,0,1,.14,1.4,6.169,6.169,0,0,1-.14,1.4h-2.1a6.169,6.169,0,0,1-.14-1.4,5.89,5.89,0,0,1,.14-1.4,6.169,6.169,0,0,1-.14-1.4,5.89,5.89,0,0,1,.14-1.4H8.036a6.169,6.169,0,0,1-.14-1.4,5.89,5.89,0,0,1,.14-1.4h1.05a6.169,6.169,0,0,1-.14-1.4,5.89,5.89,0,0,1,.14-1.4,6.169,6.169,0,0,1-.14-1.4,5.89,5.89,0,0,1,.14-1.4h2.1a5.89,5.89,0,0,1,.14,1.4,6.169,6.169,0,0,1-.14,1.4,5.89,5.89,0,0,1,.14,1.4,6.169,6.169,0,0,1-.14,1.4Zm-4.2-2.8a5.89,5.89,0,0,1,.14,1.4,6.169,6.169,0,0,1-.14,1.4h-2.8a6.169,6.169,0,0,1-.14-1.4,5.89,5.89,0,0,1,.14-1.4Zm7.14,1.4a6.169,6.169,0,0,1-.14,1.4h-2.8a6.169,6.169,0,0,1-.14-1.4,5.89,5.89,0,0,1,.14-1.4h2.8A5.89,5.89,0,0,1,15.176-39.48ZM5.1-33.88a5.89,5.89,0,0,1,.14-1.4h2.8a5.89,5.89,0,0,1,.14,1.4,6.169,6.169,0,0,1-.14,1.4h-2.8A6.169,6.169,0,0,1,5.1-33.88Zm9.94-1.4a5.89,5.89,0,0,1,.14,1.4,6.169,6.169,0,0,1-.14,1.4h-2.8a6.169,6.169,0,0,1-.14-1.4,5.89,5.89,0,0,1,.14-1.4Z" transform="translate(-5.096 43.68)"/>
    </g>
    <g id="asterísco-p-44" data-name="asterísco-p" transform="translate(-9518 -19910)">
      <path id="Caminho_9414-44" data-name="Caminho 9414" d="M12.236-38.08a5.89,5.89,0,0,1,.14,1.4,6.169,6.169,0,0,1-.14,1.4h-1.05a5.89,5.89,0,0,1,.14,1.4,6.169,6.169,0,0,1-.14,1.4,5.89,5.89,0,0,1,.14,1.4,6.169,6.169,0,0,1-.14,1.4h-2.1a6.169,6.169,0,0,1-.14-1.4,5.89,5.89,0,0,1,.14-1.4,6.169,6.169,0,0,1-.14-1.4,5.89,5.89,0,0,1,.14-1.4H8.036a6.169,6.169,0,0,1-.14-1.4,5.89,5.89,0,0,1,.14-1.4h1.05a6.169,6.169,0,0,1-.14-1.4,5.89,5.89,0,0,1,.14-1.4,6.169,6.169,0,0,1-.14-1.4,5.89,5.89,0,0,1,.14-1.4h2.1a5.89,5.89,0,0,1,.14,1.4,6.169,6.169,0,0,1-.14,1.4,5.89,5.89,0,0,1,.14,1.4,6.169,6.169,0,0,1-.14,1.4Zm-4.2-2.8a5.89,5.89,0,0,1,.14,1.4,6.169,6.169,0,0,1-.14,1.4h-2.8a6.169,6.169,0,0,1-.14-1.4,5.89,5.89,0,0,1,.14-1.4Zm7.14,1.4a6.169,6.169,0,0,1-.14,1.4h-2.8a6.169,6.169,0,0,1-.14-1.4,5.89,5.89,0,0,1,.14-1.4h2.8A5.89,5.89,0,0,1,15.176-39.48ZM5.1-33.88a5.89,5.89,0,0,1,.14-1.4h2.8a5.89,5.89,0,0,1,.14,1.4,6.169,6.169,0,0,1-.14,1.4h-2.8A6.169,6.169,0,0,1,5.1-33.88Zm9.94-1.4a5.89,5.89,0,0,1,.14,1.4,6.169,6.169,0,0,1-.14,1.4h-2.8a6.169,6.169,0,0,1-.14-1.4,5.89,5.89,0,0,1,.14-1.4Z" transform="translate(-5.096 43.68)"/>
    </g>
    <g id="asterísco-p-45" data-name="asterísco-p" transform="translate(-9495 -19910)">
      <path id="Caminho_9414-45" data-name="Caminho 9414" d="M12.236-38.08a5.89,5.89,0,0,1,.14,1.4,6.169,6.169,0,0,1-.14,1.4h-1.05a5.89,5.89,0,0,1,.14,1.4,6.169,6.169,0,0,1-.14,1.4,5.89,5.89,0,0,1,.14,1.4,6.169,6.169,0,0,1-.14,1.4h-2.1a6.169,6.169,0,0,1-.14-1.4,5.89,5.89,0,0,1,.14-1.4,6.169,6.169,0,0,1-.14-1.4,5.89,5.89,0,0,1,.14-1.4H8.036a6.169,6.169,0,0,1-.14-1.4,5.89,5.89,0,0,1,.14-1.4h1.05a6.169,6.169,0,0,1-.14-1.4,5.89,5.89,0,0,1,.14-1.4,6.169,6.169,0,0,1-.14-1.4,5.89,5.89,0,0,1,.14-1.4h2.1a5.89,5.89,0,0,1,.14,1.4,6.169,6.169,0,0,1-.14,1.4,5.89,5.89,0,0,1,.14,1.4,6.169,6.169,0,0,1-.14,1.4Zm-4.2-2.8a5.89,5.89,0,0,1,.14,1.4,6.169,6.169,0,0,1-.14,1.4h-2.8a6.169,6.169,0,0,1-.14-1.4,5.89,5.89,0,0,1,.14-1.4Zm7.14,1.4a6.169,6.169,0,0,1-.14,1.4h-2.8a6.169,6.169,0,0,1-.14-1.4,5.89,5.89,0,0,1,.14-1.4h2.8A5.89,5.89,0,0,1,15.176-39.48ZM5.1-33.88a5.89,5.89,0,0,1,.14-1.4h2.8a5.89,5.89,0,0,1,.14,1.4,6.169,6.169,0,0,1-.14,1.4h-2.8A6.169,6.169,0,0,1,5.1-33.88Zm9.94-1.4a5.89,5.89,0,0,1,.14,1.4,6.169,6.169,0,0,1-.14,1.4h-2.8a6.169,6.169,0,0,1-.14-1.4,5.89,5.89,0,0,1,.14-1.4Z" transform="translate(-5.096 43.68)"/>
    </g>
    <g id="asterísco-p-46" data-name="asterísco-p" transform="translate(-9472 -19910)">
      <path id="Caminho_9414-46" data-name="Caminho 9414" d="M12.236-38.08a5.89,5.89,0,0,1,.14,1.4,6.169,6.169,0,0,1-.14,1.4h-1.05a5.89,5.89,0,0,1,.14,1.4,6.169,6.169,0,0,1-.14,1.4,5.89,5.89,0,0,1,.14,1.4,6.169,6.169,0,0,1-.14,1.4h-2.1a6.169,6.169,0,0,1-.14-1.4,5.89,5.89,0,0,1,.14-1.4,6.169,6.169,0,0,1-.14-1.4,5.89,5.89,0,0,1,.14-1.4H8.036a6.169,6.169,0,0,1-.14-1.4,5.89,5.89,0,0,1,.14-1.4h1.05a6.169,6.169,0,0,1-.14-1.4,5.89,5.89,0,0,1,.14-1.4,6.169,6.169,0,0,1-.14-1.4,5.89,5.89,0,0,1,.14-1.4h2.1a5.89,5.89,0,0,1,.14,1.4,6.169,6.169,0,0,1-.14,1.4,5.89,5.89,0,0,1,.14,1.4,6.169,6.169,0,0,1-.14,1.4Zm-4.2-2.8a5.89,5.89,0,0,1,.14,1.4,6.169,6.169,0,0,1-.14,1.4h-2.8a6.169,6.169,0,0,1-.14-1.4,5.89,5.89,0,0,1,.14-1.4Zm7.14,1.4a6.169,6.169,0,0,1-.14,1.4h-2.8a6.169,6.169,0,0,1-.14-1.4,5.89,5.89,0,0,1,.14-1.4h2.8A5.89,5.89,0,0,1,15.176-39.48ZM5.1-33.88a5.89,5.89,0,0,1,.14-1.4h2.8a5.89,5.89,0,0,1,.14,1.4,6.169,6.169,0,0,1-.14,1.4h-2.8A6.169,6.169,0,0,1,5.1-33.88Zm9.94-1.4a5.89,5.89,0,0,1,.14,1.4,6.169,6.169,0,0,1-.14,1.4h-2.8a6.169,6.169,0,0,1-.14-1.4,5.89,5.89,0,0,1,.14-1.4Z" transform="translate(-5.096 43.68)"/>
    </g>
    <g id="asterísco-p-47" data-name="asterísco-p" transform="translate(-9449 -19910)">
      <path id="Caminho_9414-47" data-name="Caminho 9414" d="M12.236-38.08a5.89,5.89,0,0,1,.14,1.4,6.169,6.169,0,0,1-.14,1.4h-1.05a5.89,5.89,0,0,1,.14,1.4,6.169,6.169,0,0,1-.14,1.4,5.89,5.89,0,0,1,.14,1.4,6.169,6.169,0,0,1-.14,1.4h-2.1a6.169,6.169,0,0,1-.14-1.4,5.89,5.89,0,0,1,.14-1.4,6.169,6.169,0,0,1-.14-1.4,5.89,5.89,0,0,1,.14-1.4H8.036a6.169,6.169,0,0,1-.14-1.4,5.89,5.89,0,0,1,.14-1.4h1.05a6.169,6.169,0,0,1-.14-1.4,5.89,5.89,0,0,1,.14-1.4,6.169,6.169,0,0,1-.14-1.4,5.89,5.89,0,0,1,.14-1.4h2.1a5.89,5.89,0,0,1,.14,1.4,6.169,6.169,0,0,1-.14,1.4,5.89,5.89,0,0,1,.14,1.4,6.169,6.169,0,0,1-.14,1.4Zm-4.2-2.8a5.89,5.89,0,0,1,.14,1.4,6.169,6.169,0,0,1-.14,1.4h-2.8a6.169,6.169,0,0,1-.14-1.4,5.89,5.89,0,0,1,.14-1.4Zm7.14,1.4a6.169,6.169,0,0,1-.14,1.4h-2.8a6.169,6.169,0,0,1-.14-1.4,5.89,5.89,0,0,1,.14-1.4h2.8A5.89,5.89,0,0,1,15.176-39.48ZM5.1-33.88a5.89,5.89,0,0,1,.14-1.4h2.8a5.89,5.89,0,0,1,.14,1.4,6.169,6.169,0,0,1-.14,1.4h-2.8A6.169,6.169,0,0,1,5.1-33.88Zm9.94-1.4a5.89,5.89,0,0,1,.14,1.4,6.169,6.169,0,0,1-.14,1.4h-2.8a6.169,6.169,0,0,1-.14-1.4,5.89,5.89,0,0,1,.14-1.4Z" transform="translate(-5.096 43.68)"/>
    </g>
    <g id="asterísco-p-48" data-name="asterísco-p" transform="translate(-9426 -19910)">
      <path id="Caminho_9414-48" data-name="Caminho 9414" d="M12.236-38.08a5.89,5.89,0,0,1,.14,1.4,6.169,6.169,0,0,1-.14,1.4h-1.05a5.89,5.89,0,0,1,.14,1.4,6.169,6.169,0,0,1-.14,1.4,5.89,5.89,0,0,1,.14,1.4,6.169,6.169,0,0,1-.14,1.4h-2.1a6.169,6.169,0,0,1-.14-1.4,5.89,5.89,0,0,1,.14-1.4,6.169,6.169,0,0,1-.14-1.4,5.89,5.89,0,0,1,.14-1.4H8.036a6.169,6.169,0,0,1-.14-1.4,5.89,5.89,0,0,1,.14-1.4h1.05a6.169,6.169,0,0,1-.14-1.4,5.89,5.89,0,0,1,.14-1.4,6.169,6.169,0,0,1-.14-1.4,5.89,5.89,0,0,1,.14-1.4h2.1a5.89,5.89,0,0,1,.14,1.4,6.169,6.169,0,0,1-.14,1.4,5.89,5.89,0,0,1,.14,1.4,6.169,6.169,0,0,1-.14,1.4Zm-4.2-2.8a5.89,5.89,0,0,1,.14,1.4,6.169,6.169,0,0,1-.14,1.4h-2.8a6.169,6.169,0,0,1-.14-1.4,5.89,5.89,0,0,1,.14-1.4Zm7.14,1.4a6.169,6.169,0,0,1-.14,1.4h-2.8a6.169,6.169,0,0,1-.14-1.4,5.89,5.89,0,0,1,.14-1.4h2.8A5.89,5.89,0,0,1,15.176-39.48ZM5.1-33.88a5.89,5.89,0,0,1,.14-1.4h2.8a5.89,5.89,0,0,1,.14,1.4,6.169,6.169,0,0,1-.14,1.4h-2.8A6.169,6.169,0,0,1,5.1-33.88Zm9.94-1.4a5.89,5.89,0,0,1,.14,1.4,6.169,6.169,0,0,1-.14,1.4h-2.8a6.169,6.169,0,0,1-.14-1.4,5.89,5.89,0,0,1,.14-1.4Z" transform="translate(-5.096 43.68)"/>
    </g>
    <g id="asterísco-p-49" data-name="asterísco-p" transform="translate(-9403 -19910)">
      <path id="Caminho_9414-49" data-name="Caminho 9414" d="M12.236-38.08a5.89,5.89,0,0,1,.14,1.4,6.169,6.169,0,0,1-.14,1.4h-1.05a5.89,5.89,0,0,1,.14,1.4,6.169,6.169,0,0,1-.14,1.4,5.89,5.89,0,0,1,.14,1.4,6.169,6.169,0,0,1-.14,1.4h-2.1a6.169,6.169,0,0,1-.14-1.4,5.89,5.89,0,0,1,.14-1.4,6.169,6.169,0,0,1-.14-1.4,5.89,5.89,0,0,1,.14-1.4H8.036a6.169,6.169,0,0,1-.14-1.4,5.89,5.89,0,0,1,.14-1.4h1.05a6.169,6.169,0,0,1-.14-1.4,5.89,5.89,0,0,1,.14-1.4,6.169,6.169,0,0,1-.14-1.4,5.89,5.89,0,0,1,.14-1.4h2.1a5.89,5.89,0,0,1,.14,1.4,6.169,6.169,0,0,1-.14,1.4,5.89,5.89,0,0,1,.14,1.4,6.169,6.169,0,0,1-.14,1.4Zm-4.2-2.8a5.89,5.89,0,0,1,.14,1.4,6.169,6.169,0,0,1-.14,1.4h-2.8a6.169,6.169,0,0,1-.14-1.4,5.89,5.89,0,0,1,.14-1.4Zm7.14,1.4a6.169,6.169,0,0,1-.14,1.4h-2.8a6.169,6.169,0,0,1-.14-1.4,5.89,5.89,0,0,1,.14-1.4h2.8A5.89,5.89,0,0,1,15.176-39.48ZM5.1-33.88a5.89,5.89,0,0,1,.14-1.4h2.8a5.89,5.89,0,0,1,.14,1.4,6.169,6.169,0,0,1-.14,1.4h-2.8A6.169,6.169,0,0,1,5.1-33.88Zm9.94-1.4a5.89,5.89,0,0,1,.14,1.4,6.169,6.169,0,0,1-.14,1.4h-2.8a6.169,6.169,0,0,1-.14-1.4,5.89,5.89,0,0,1,.14-1.4Z" transform="translate(-5.096 43.68)"/>
    </g>
    <g id="asterísco-p-50" data-name="asterísco-p" transform="translate(-9380 -19910)">
      <path id="Caminho_9414-50" data-name="Caminho 9414" d="M12.236-38.08a5.89,5.89,0,0,1,.14,1.4,6.169,6.169,0,0,1-.14,1.4h-1.05a5.89,5.89,0,0,1,.14,1.4,6.169,6.169,0,0,1-.14,1.4,5.89,5.89,0,0,1,.14,1.4,6.169,6.169,0,0,1-.14,1.4h-2.1a6.169,6.169,0,0,1-.14-1.4,5.89,5.89,0,0,1,.14-1.4,6.169,6.169,0,0,1-.14-1.4,5.89,5.89,0,0,1,.14-1.4H8.036a6.169,6.169,0,0,1-.14-1.4,5.89,5.89,0,0,1,.14-1.4h1.05a6.169,6.169,0,0,1-.14-1.4,5.89,5.89,0,0,1,.14-1.4,6.169,6.169,0,0,1-.14-1.4,5.89,5.89,0,0,1,.14-1.4h2.1a5.89,5.89,0,0,1,.14,1.4,6.169,6.169,0,0,1-.14,1.4,5.89,5.89,0,0,1,.14,1.4,6.169,6.169,0,0,1-.14,1.4Zm-4.2-2.8a5.89,5.89,0,0,1,.14,1.4,6.169,6.169,0,0,1-.14,1.4h-2.8a6.169,6.169,0,0,1-.14-1.4,5.89,5.89,0,0,1,.14-1.4Zm7.14,1.4a6.169,6.169,0,0,1-.14,1.4h-2.8a6.169,6.169,0,0,1-.14-1.4,5.89,5.89,0,0,1,.14-1.4h2.8A5.89,5.89,0,0,1,15.176-39.48ZM5.1-33.88a5.89,5.89,0,0,1,.14-1.4h2.8a5.89,5.89,0,0,1,.14,1.4,6.169,6.169,0,0,1-.14,1.4h-2.8A6.169,6.169,0,0,1,5.1-33.88Zm9.94-1.4a5.89,5.89,0,0,1,.14,1.4,6.169,6.169,0,0,1-.14,1.4h-2.8a6.169,6.169,0,0,1-.14-1.4,5.89,5.89,0,0,1,.14-1.4Z" transform="translate(-5.096 43.68)"/>
    </g>
    <g id="asterísco-p-51" data-name="asterísco-p" transform="translate(-9357 -19910)">
      <path id="Caminho_9414-51" data-name="Caminho 9414" d="M12.236-38.08a5.89,5.89,0,0,1,.14,1.4,6.169,6.169,0,0,1-.14,1.4h-1.05a5.89,5.89,0,0,1,.14,1.4,6.169,6.169,0,0,1-.14,1.4,5.89,5.89,0,0,1,.14,1.4,6.169,6.169,0,0,1-.14,1.4h-2.1a6.169,6.169,0,0,1-.14-1.4,5.89,5.89,0,0,1,.14-1.4,6.169,6.169,0,0,1-.14-1.4,5.89,5.89,0,0,1,.14-1.4H8.036a6.169,6.169,0,0,1-.14-1.4,5.89,5.89,0,0,1,.14-1.4h1.05a6.169,6.169,0,0,1-.14-1.4,5.89,5.89,0,0,1,.14-1.4,6.169,6.169,0,0,1-.14-1.4,5.89,5.89,0,0,1,.14-1.4h2.1a5.89,5.89,0,0,1,.14,1.4,6.169,6.169,0,0,1-.14,1.4,5.89,5.89,0,0,1,.14,1.4,6.169,6.169,0,0,1-.14,1.4Zm-4.2-2.8a5.89,5.89,0,0,1,.14,1.4,6.169,6.169,0,0,1-.14,1.4h-2.8a6.169,6.169,0,0,1-.14-1.4,5.89,5.89,0,0,1,.14-1.4Zm7.14,1.4a6.169,6.169,0,0,1-.14,1.4h-2.8a6.169,6.169,0,0,1-.14-1.4,5.89,5.89,0,0,1,.14-1.4h2.8A5.89,5.89,0,0,1,15.176-39.48ZM5.1-33.88a5.89,5.89,0,0,1,.14-1.4h2.8a5.89,5.89,0,0,1,.14,1.4,6.169,6.169,0,0,1-.14,1.4h-2.8A6.169,6.169,0,0,1,5.1-33.88Zm9.94-1.4a5.89,5.89,0,0,1,.14,1.4,6.169,6.169,0,0,1-.14,1.4h-2.8a6.169,6.169,0,0,1-.14-1.4,5.89,5.89,0,0,1,.14-1.4Z" transform="translate(-5.096 43.68)"/>
    </g>
    <g id="asterísco-p-52" data-name="asterísco-p" transform="translate(-9334 -19910)">
      <path id="Caminho_9414-52" data-name="Caminho 9414" d="M12.236-38.08a5.89,5.89,0,0,1,.14,1.4,6.169,6.169,0,0,1-.14,1.4h-1.05a5.89,5.89,0,0,1,.14,1.4,6.169,6.169,0,0,1-.14,1.4,5.89,5.89,0,0,1,.14,1.4,6.169,6.169,0,0,1-.14,1.4h-2.1a6.169,6.169,0,0,1-.14-1.4,5.89,5.89,0,0,1,.14-1.4,6.169,6.169,0,0,1-.14-1.4,5.89,5.89,0,0,1,.14-1.4H8.036a6.169,6.169,0,0,1-.14-1.4,5.89,5.89,0,0,1,.14-1.4h1.05a6.169,6.169,0,0,1-.14-1.4,5.89,5.89,0,0,1,.14-1.4,6.169,6.169,0,0,1-.14-1.4,5.89,5.89,0,0,1,.14-1.4h2.1a5.89,5.89,0,0,1,.14,1.4,6.169,6.169,0,0,1-.14,1.4,5.89,5.89,0,0,1,.14,1.4,6.169,6.169,0,0,1-.14,1.4Zm-4.2-2.8a5.89,5.89,0,0,1,.14,1.4,6.169,6.169,0,0,1-.14,1.4h-2.8a6.169,6.169,0,0,1-.14-1.4,5.89,5.89,0,0,1,.14-1.4Zm7.14,1.4a6.169,6.169,0,0,1-.14,1.4h-2.8a6.169,6.169,0,0,1-.14-1.4,5.89,5.89,0,0,1,.14-1.4h2.8A5.89,5.89,0,0,1,15.176-39.48ZM5.1-33.88a5.89,5.89,0,0,1,.14-1.4h2.8a5.89,5.89,0,0,1,.14,1.4,6.169,6.169,0,0,1-.14,1.4h-2.8A6.169,6.169,0,0,1,5.1-33.88Zm9.94-1.4a5.89,5.89,0,0,1,.14,1.4,6.169,6.169,0,0,1-.14,1.4h-2.8a6.169,6.169,0,0,1-.14-1.4,5.89,5.89,0,0,1,.14-1.4Z" transform="translate(-5.096 43.68)"/>
    </g>
    <g id="asterísco-p-53" data-name="asterísco-p" transform="translate(-9311 -19910)">
      <path id="Caminho_9414-53" data-name="Caminho 9414" d="M12.236-38.08a5.89,5.89,0,0,1,.14,1.4,6.169,6.169,0,0,1-.14,1.4h-1.05a5.89,5.89,0,0,1,.14,1.4,6.169,6.169,0,0,1-.14,1.4,5.89,5.89,0,0,1,.14,1.4,6.169,6.169,0,0,1-.14,1.4h-2.1a6.169,6.169,0,0,1-.14-1.4,5.89,5.89,0,0,1,.14-1.4,6.169,6.169,0,0,1-.14-1.4,5.89,5.89,0,0,1,.14-1.4H8.036a6.169,6.169,0,0,1-.14-1.4,5.89,5.89,0,0,1,.14-1.4h1.05a6.169,6.169,0,0,1-.14-1.4,5.89,5.89,0,0,1,.14-1.4,6.169,6.169,0,0,1-.14-1.4,5.89,5.89,0,0,1,.14-1.4h2.1a5.89,5.89,0,0,1,.14,1.4,6.169,6.169,0,0,1-.14,1.4,5.89,5.89,0,0,1,.14,1.4,6.169,6.169,0,0,1-.14,1.4Zm-4.2-2.8a5.89,5.89,0,0,1,.14,1.4,6.169,6.169,0,0,1-.14,1.4h-2.8a6.169,6.169,0,0,1-.14-1.4,5.89,5.89,0,0,1,.14-1.4Zm7.14,1.4a6.169,6.169,0,0,1-.14,1.4h-2.8a6.169,6.169,0,0,1-.14-1.4,5.89,5.89,0,0,1,.14-1.4h2.8A5.89,5.89,0,0,1,15.176-39.48ZM5.1-33.88a5.89,5.89,0,0,1,.14-1.4h2.8a5.89,5.89,0,0,1,.14,1.4,6.169,6.169,0,0,1-.14,1.4h-2.8A6.169,6.169,0,0,1,5.1-33.88Zm9.94-1.4a5.89,5.89,0,0,1,.14,1.4,6.169,6.169,0,0,1-.14,1.4h-2.8a6.169,6.169,0,0,1-.14-1.4,5.89,5.89,0,0,1,.14-1.4Z" transform="translate(-5.096 43.68)"/>
    </g>
    <g id="asterísco-p-54" data-name="asterísco-p" transform="translate(-9288 -19910)">
      <path id="Caminho_9414-54" data-name="Caminho 9414" d="M12.236-38.08a5.89,5.89,0,0,1,.14,1.4,6.169,6.169,0,0,1-.14,1.4h-1.05a5.89,5.89,0,0,1,.14,1.4,6.169,6.169,0,0,1-.14,1.4,5.89,5.89,0,0,1,.14,1.4,6.169,6.169,0,0,1-.14,1.4h-2.1a6.169,6.169,0,0,1-.14-1.4,5.89,5.89,0,0,1,.14-1.4,6.169,6.169,0,0,1-.14-1.4,5.89,5.89,0,0,1,.14-1.4H8.036a6.169,6.169,0,0,1-.14-1.4,5.89,5.89,0,0,1,.14-1.4h1.05a6.169,6.169,0,0,1-.14-1.4,5.89,5.89,0,0,1,.14-1.4,6.169,6.169,0,0,1-.14-1.4,5.89,5.89,0,0,1,.14-1.4h2.1a5.89,5.89,0,0,1,.14,1.4,6.169,6.169,0,0,1-.14,1.4,5.89,5.89,0,0,1,.14,1.4,6.169,6.169,0,0,1-.14,1.4Zm-4.2-2.8a5.89,5.89,0,0,1,.14,1.4,6.169,6.169,0,0,1-.14,1.4h-2.8a6.169,6.169,0,0,1-.14-1.4,5.89,5.89,0,0,1,.14-1.4Zm7.14,1.4a6.169,6.169,0,0,1-.14,1.4h-2.8a6.169,6.169,0,0,1-.14-1.4,5.89,5.89,0,0,1,.14-1.4h2.8A5.89,5.89,0,0,1,15.176-39.48ZM5.1-33.88a5.89,5.89,0,0,1,.14-1.4h2.8a5.89,5.89,0,0,1,.14,1.4,6.169,6.169,0,0,1-.14,1.4h-2.8A6.169,6.169,0,0,1,5.1-33.88Zm9.94-1.4a5.89,5.89,0,0,1,.14,1.4,6.169,6.169,0,0,1-.14,1.4h-2.8a6.169,6.169,0,0,1-.14-1.4,5.89,5.89,0,0,1,.14-1.4Z" transform="translate(-5.096 43.68)"/>
    </g>
    <g id="asterísco-p-55" data-name="asterísco-p" transform="translate(-9265 -19910)">
      <path id="Caminho_9414-55" data-name="Caminho 9414" d="M12.236-38.08a5.89,5.89,0,0,1,.14,1.4,6.169,6.169,0,0,1-.14,1.4h-1.05a5.89,5.89,0,0,1,.14,1.4,6.169,6.169,0,0,1-.14,1.4,5.89,5.89,0,0,1,.14,1.4,6.169,6.169,0,0,1-.14,1.4h-2.1a6.169,6.169,0,0,1-.14-1.4,5.89,5.89,0,0,1,.14-1.4,6.169,6.169,0,0,1-.14-1.4,5.89,5.89,0,0,1,.14-1.4H8.036a6.169,6.169,0,0,1-.14-1.4,5.89,5.89,0,0,1,.14-1.4h1.05a6.169,6.169,0,0,1-.14-1.4,5.89,5.89,0,0,1,.14-1.4,6.169,6.169,0,0,1-.14-1.4,5.89,5.89,0,0,1,.14-1.4h2.1a5.89,5.89,0,0,1,.14,1.4,6.169,6.169,0,0,1-.14,1.4,5.89,5.89,0,0,1,.14,1.4,6.169,6.169,0,0,1-.14,1.4Zm-4.2-2.8a5.89,5.89,0,0,1,.14,1.4,6.169,6.169,0,0,1-.14,1.4h-2.8a6.169,6.169,0,0,1-.14-1.4,5.89,5.89,0,0,1,.14-1.4Zm7.14,1.4a6.169,6.169,0,0,1-.14,1.4h-2.8a6.169,6.169,0,0,1-.14-1.4,5.89,5.89,0,0,1,.14-1.4h2.8A5.89,5.89,0,0,1,15.176-39.48ZM5.1-33.88a5.89,5.89,0,0,1,.14-1.4h2.8a5.89,5.89,0,0,1,.14,1.4,6.169,6.169,0,0,1-.14,1.4h-2.8A6.169,6.169,0,0,1,5.1-33.88Zm9.94-1.4a5.89,5.89,0,0,1,.14,1.4,6.169,6.169,0,0,1-.14,1.4h-2.8a6.169,6.169,0,0,1-.14-1.4,5.89,5.89,0,0,1,.14-1.4Z" transform="translate(-5.096 43.68)"/>
    </g>
    <g id="asterísco-p-56" data-name="asterísco-p" transform="translate(-9242 -19910)">
      <path id="Caminho_9414-56" data-name="Caminho 9414" d="M12.236-38.08a5.89,5.89,0,0,1,.14,1.4,6.169,6.169,0,0,1-.14,1.4h-1.05a5.89,5.89,0,0,1,.14,1.4,6.169,6.169,0,0,1-.14,1.4,5.89,5.89,0,0,1,.14,1.4,6.169,6.169,0,0,1-.14,1.4h-2.1a6.169,6.169,0,0,1-.14-1.4,5.89,5.89,0,0,1,.14-1.4,6.169,6.169,0,0,1-.14-1.4,5.89,5.89,0,0,1,.14-1.4H8.036a6.169,6.169,0,0,1-.14-1.4,5.89,5.89,0,0,1,.14-1.4h1.05a6.169,6.169,0,0,1-.14-1.4,5.89,5.89,0,0,1,.14-1.4,6.169,6.169,0,0,1-.14-1.4,5.89,5.89,0,0,1,.14-1.4h2.1a5.89,5.89,0,0,1,.14,1.4,6.169,6.169,0,0,1-.14,1.4,5.89,5.89,0,0,1,.14,1.4,6.169,6.169,0,0,1-.14,1.4Zm-4.2-2.8a5.89,5.89,0,0,1,.14,1.4,6.169,6.169,0,0,1-.14,1.4h-2.8a6.169,6.169,0,0,1-.14-1.4,5.89,5.89,0,0,1,.14-1.4Zm7.14,1.4a6.169,6.169,0,0,1-.14,1.4h-2.8a6.169,6.169,0,0,1-.14-1.4,5.89,5.89,0,0,1,.14-1.4h2.8A5.89,5.89,0,0,1,15.176-39.48ZM5.1-33.88a5.89,5.89,0,0,1,.14-1.4h2.8a5.89,5.89,0,0,1,.14,1.4,6.169,6.169,0,0,1-.14,1.4h-2.8A6.169,6.169,0,0,1,5.1-33.88Zm9.94-1.4a5.89,5.89,0,0,1,.14,1.4,6.169,6.169,0,0,1-.14,1.4h-2.8a6.169,6.169,0,0,1-.14-1.4,5.89,5.89,0,0,1,.14-1.4Z" transform="translate(-5.096 43.68)"/>
    </g>
  </g>
</svg>
